<mxfile host="app.diagrams.net" modified="2023-09-29T23:51:42.349Z" agent="Mozilla/5.0 (Windows NT 10.0; Win64; x64) AppleWebKit/537.36 (KHTML, like Gecko) Chrome/117.0.0.0 Safari/537.36" etag="20zRNa_T3RNa4ie_sGSJ" version="22.0.0" type="github" pages="3">
  <diagram name="Страница 1" id="1BGJjEX1ncRzJNrh3b40">
    <mxGraphModel dx="1953" dy="2131" grid="1" gridSize="10" guides="1" tooltips="1" connect="1" arrows="1" fold="1" page="1" pageScale="1" pageWidth="827" pageHeight="1169" math="0" shadow="0">
      <root>
        <mxCell id="0" />
        <mxCell id="1" parent="0" />
        <mxCell id="f8X2pZttK8cUpLkIfQlC-1" value="Product" style="swimlane;fontStyle=0;childLayout=stackLayout;horizontal=1;startSize=30;horizontalStack=0;resizeParent=1;resizeParentMax=0;resizeLast=0;collapsible=1;marginBottom=0;whiteSpace=wrap;html=1;" parent="1" vertex="1">
          <mxGeometry x="80" y="59.94" width="240" height="240" as="geometry" />
        </mxCell>
        <mxCell id="f8X2pZttK8cUpLkIfQlC-2" value="id: ProductId" style="text;strokeColor=none;fillColor=none;align=left;verticalAlign=middle;spacingLeft=4;spacingRight=4;overflow=hidden;points=[[0,0.5],[1,0.5]];portConstraint=eastwest;rotatable=0;whiteSpace=wrap;html=1;" parent="f8X2pZttK8cUpLkIfQlC-1" vertex="1">
          <mxGeometry y="30" width="240" height="30" as="geometry" />
        </mxCell>
        <mxCell id="f8X2pZttK8cUpLkIfQlC-3" value="place: Places" style="text;strokeColor=none;fillColor=none;align=left;verticalAlign=middle;spacingLeft=4;spacingRight=4;overflow=hidden;points=[[0,0.5],[1,0.5]];portConstraint=eastwest;rotatable=0;whiteSpace=wrap;html=1;" parent="f8X2pZttK8cUpLkIfQlC-1" vertex="1">
          <mxGeometry y="60" width="240" height="30" as="geometry" />
        </mxCell>
        <mxCell id="f8X2pZttK8cUpLkIfQlC-4" value="category: int" style="text;strokeColor=none;fillColor=none;align=left;verticalAlign=middle;spacingLeft=4;spacingRight=4;overflow=hidden;points=[[0,0.5],[1,0.5]];portConstraint=eastwest;rotatable=0;whiteSpace=wrap;html=1;" parent="f8X2pZttK8cUpLkIfQlC-1" vertex="1">
          <mxGeometry y="90" width="240" height="30" as="geometry" />
        </mxCell>
        <mxCell id="f8X2pZttK8cUpLkIfQlC-5" value="photo: list [ str ]" style="text;strokeColor=none;fillColor=none;align=left;verticalAlign=middle;spacingLeft=4;spacingRight=4;overflow=hidden;points=[[0,0.5],[1,0.5]];portConstraint=eastwest;rotatable=0;whiteSpace=wrap;html=1;" parent="f8X2pZttK8cUpLkIfQlC-1" vertex="1">
          <mxGeometry y="120" width="240" height="30" as="geometry" />
        </mxCell>
        <mxCell id="f8X2pZttK8cUpLkIfQlC-6" value="modification: Optional [ Modification ]" style="text;strokeColor=none;fillColor=none;align=left;verticalAlign=middle;spacingLeft=4;spacingRight=4;overflow=hidden;points=[[0,0.5],[1,0.5]];portConstraint=eastwest;rotatable=0;whiteSpace=wrap;html=1;" parent="f8X2pZttK8cUpLkIfQlC-1" vertex="1">
          <mxGeometry y="150" width="240" height="30" as="geometry" />
        </mxCell>
        <mxCell id="f8X2pZttK8cUpLkIfQlC-7" value="information: Information" style="text;strokeColor=none;fillColor=none;align=left;verticalAlign=middle;spacingLeft=4;spacingRight=4;overflow=hidden;points=[[0,0.5],[1,0.5]];portConstraint=eastwest;rotatable=0;whiteSpace=wrap;html=1;" parent="f8X2pZttK8cUpLkIfQlC-1" vertex="1">
          <mxGeometry y="180" width="240" height="30" as="geometry" />
        </mxCell>
        <mxCell id="f8X2pZttK8cUpLkIfQlC-8" value="available: AvailableEnum" style="text;strokeColor=none;fillColor=none;align=left;verticalAlign=middle;spacingLeft=4;spacingRight=4;overflow=hidden;points=[[0,0.5],[1,0.5]];portConstraint=eastwest;rotatable=0;whiteSpace=wrap;html=1;" parent="f8X2pZttK8cUpLkIfQlC-1" vertex="1">
          <mxGeometry y="210" width="240" height="30" as="geometry" />
        </mxCell>
        <mxCell id="f8X2pZttK8cUpLkIfQlC-16" style="edgeStyle=orthogonalEdgeStyle;rounded=0;orthogonalLoop=1;jettySize=auto;html=1;entryX=0;entryY=0.5;entryDx=0;entryDy=0;" parent="1" source="f8X2pZttK8cUpLkIfQlC-12" target="f8X2pZttK8cUpLkIfQlC-7" edge="1">
          <mxGeometry relative="1" as="geometry">
            <Array as="points">
              <mxPoint x="460" y="39.94" />
              <mxPoint x="20" y="39.94" />
              <mxPoint x="20" y="254.94" />
            </Array>
          </mxGeometry>
        </mxCell>
        <mxCell id="f8X2pZttK8cUpLkIfQlC-12" value="Information" style="swimlane;fontStyle=0;childLayout=stackLayout;horizontal=1;startSize=30;horizontalStack=0;resizeParent=1;resizeParentMax=0;resizeLast=0;collapsible=1;marginBottom=0;whiteSpace=wrap;html=1;" parent="1" vertex="1">
          <mxGeometry x="360" y="59.94" width="200" height="120" as="geometry" />
        </mxCell>
        <mxCell id="f8X2pZttK8cUpLkIfQlC-13" value="language: LanguageEnum" style="text;strokeColor=none;fillColor=none;align=left;verticalAlign=middle;spacingLeft=4;spacingRight=4;overflow=hidden;points=[[0,0.5],[1,0.5]];portConstraint=eastwest;rotatable=0;whiteSpace=wrap;html=1;" parent="f8X2pZttK8cUpLkIfQlC-12" vertex="1">
          <mxGeometry y="30" width="200" height="30" as="geometry" />
        </mxCell>
        <mxCell id="f8X2pZttK8cUpLkIfQlC-14" value="name: str" style="text;strokeColor=none;fillColor=none;align=left;verticalAlign=middle;spacingLeft=4;spacingRight=4;overflow=hidden;points=[[0,0.5],[1,0.5]];portConstraint=eastwest;rotatable=0;whiteSpace=wrap;html=1;" parent="f8X2pZttK8cUpLkIfQlC-12" vertex="1">
          <mxGeometry y="60" width="200" height="30" as="geometry" />
        </mxCell>
        <mxCell id="f8X2pZttK8cUpLkIfQlC-15" value="description: str" style="text;strokeColor=none;fillColor=none;align=left;verticalAlign=middle;spacingLeft=4;spacingRight=4;overflow=hidden;points=[[0,0.5],[1,0.5]];portConstraint=eastwest;rotatable=0;whiteSpace=wrap;html=1;" parent="f8X2pZttK8cUpLkIfQlC-12" vertex="1">
          <mxGeometry y="90" width="200" height="30" as="geometry" />
        </mxCell>
        <mxCell id="f8X2pZttK8cUpLkIfQlC-21" style="edgeStyle=orthogonalEdgeStyle;rounded=0;orthogonalLoop=1;jettySize=auto;html=1;entryX=0;entryY=0.5;entryDx=0;entryDy=0;" parent="1" source="f8X2pZttK8cUpLkIfQlC-17" target="f8X2pZttK8cUpLkIfQlC-6" edge="1">
          <mxGeometry relative="1" as="geometry">
            <Array as="points">
              <mxPoint x="430" y="329.94" />
              <mxPoint x="40" y="329.94" />
              <mxPoint x="40" y="224.94" />
            </Array>
          </mxGeometry>
        </mxCell>
        <mxCell id="f8X2pZttK8cUpLkIfQlC-17" value="Modification" style="swimlane;fontStyle=0;childLayout=stackLayout;horizontal=1;startSize=30;horizontalStack=0;resizeParent=1;resizeParentMax=0;resizeLast=0;collapsible=1;marginBottom=0;whiteSpace=wrap;html=1;" parent="1" vertex="1">
          <mxGeometry x="360" y="219.94" width="140" height="90" as="geometry" />
        </mxCell>
        <mxCell id="f8X2pZttK8cUpLkIfQlC-19" value="modification_name: str" style="text;strokeColor=none;fillColor=none;align=left;verticalAlign=middle;spacingLeft=4;spacingRight=4;overflow=hidden;points=[[0,0.5],[1,0.5]];portConstraint=eastwest;rotatable=0;whiteSpace=wrap;html=1;" parent="f8X2pZttK8cUpLkIfQlC-17" vertex="1">
          <mxGeometry y="30" width="140" height="30" as="geometry" />
        </mxCell>
        <mxCell id="f8X2pZttK8cUpLkIfQlC-20" value="modification_price: int" style="text;strokeColor=none;fillColor=none;align=left;verticalAlign=middle;spacingLeft=4;spacingRight=4;overflow=hidden;points=[[0,0.5],[1,0.5]];portConstraint=eastwest;rotatable=0;whiteSpace=wrap;html=1;" parent="f8X2pZttK8cUpLkIfQlC-17" vertex="1">
          <mxGeometry y="60" width="140" height="30" as="geometry" />
        </mxCell>
        <mxCell id="f8X2pZttK8cUpLkIfQlC-30" style="edgeStyle=orthogonalEdgeStyle;rounded=0;orthogonalLoop=1;jettySize=auto;html=1;entryX=0;entryY=0.5;entryDx=0;entryDy=0;" parent="1" source="f8X2pZttK8cUpLkIfQlC-22" target="f8X2pZttK8cUpLkIfQlC-28" edge="1">
          <mxGeometry relative="1" as="geometry" />
        </mxCell>
        <mxCell id="f8X2pZttK8cUpLkIfQlC-22" value="Place" style="swimlane;fontStyle=0;childLayout=stackLayout;horizontal=1;startSize=30;horizontalStack=0;resizeParent=1;resizeParentMax=0;resizeLast=0;collapsible=1;marginBottom=0;whiteSpace=wrap;html=1;" parent="1" vertex="1">
          <mxGeometry x="80" y="379.94" width="200" height="120" as="geometry" />
        </mxCell>
        <mxCell id="f8X2pZttK8cUpLkIfQlC-23" value="language: LanguageEnum" style="text;strokeColor=none;fillColor=none;align=left;verticalAlign=middle;spacingLeft=4;spacingRight=4;overflow=hidden;points=[[0,0.5],[1,0.5]];portConstraint=eastwest;rotatable=0;whiteSpace=wrap;html=1;" parent="f8X2pZttK8cUpLkIfQlC-22" vertex="1">
          <mxGeometry y="30" width="200" height="30" as="geometry" />
        </mxCell>
        <mxCell id="f8X2pZttK8cUpLkIfQlC-24" value="name: str" style="text;strokeColor=none;fillColor=none;align=left;verticalAlign=middle;spacingLeft=4;spacingRight=4;overflow=hidden;points=[[0,0.5],[1,0.5]];portConstraint=eastwest;rotatable=0;whiteSpace=wrap;html=1;" parent="f8X2pZttK8cUpLkIfQlC-22" vertex="1">
          <mxGeometry y="60" width="200" height="30" as="geometry" />
        </mxCell>
        <mxCell id="f8X2pZttK8cUpLkIfQlC-25" value="location: Location" style="text;strokeColor=none;fillColor=none;align=left;verticalAlign=middle;spacingLeft=4;spacingRight=4;overflow=hidden;points=[[0,0.5],[1,0.5]];portConstraint=eastwest;rotatable=0;whiteSpace=wrap;html=1;" parent="f8X2pZttK8cUpLkIfQlC-22" vertex="1">
          <mxGeometry y="90" width="200" height="30" as="geometry" />
        </mxCell>
        <mxCell id="f8X2pZttK8cUpLkIfQlC-31" style="edgeStyle=orthogonalEdgeStyle;rounded=0;orthogonalLoop=1;jettySize=auto;html=1;entryX=0;entryY=0.5;entryDx=0;entryDy=0;" parent="1" source="f8X2pZttK8cUpLkIfQlC-26" target="f8X2pZttK8cUpLkIfQlC-3" edge="1">
          <mxGeometry relative="1" as="geometry">
            <Array as="points">
              <mxPoint x="410" y="349.94" />
              <mxPoint x="30" y="349.94" />
              <mxPoint x="30" y="134.94" />
            </Array>
          </mxGeometry>
        </mxCell>
        <mxCell id="f8X2pZttK8cUpLkIfQlC-26" value="Places" style="swimlane;fontStyle=0;childLayout=stackLayout;horizontal=1;startSize=30;horizontalStack=0;resizeParent=1;resizeParentMax=0;resizeLast=0;collapsible=1;marginBottom=0;whiteSpace=wrap;html=1;" parent="1" vertex="1">
          <mxGeometry x="320" y="379.94" width="180" height="90" as="geometry" />
        </mxCell>
        <mxCell id="f8X2pZttK8cUpLkIfQlC-27" value="language: LanguageEnum" style="text;strokeColor=none;fillColor=none;align=left;verticalAlign=middle;spacingLeft=4;spacingRight=4;overflow=hidden;points=[[0,0.5],[1,0.5]];portConstraint=eastwest;rotatable=0;whiteSpace=wrap;html=1;" parent="f8X2pZttK8cUpLkIfQlC-26" vertex="1">
          <mxGeometry y="30" width="180" height="30" as="geometry" />
        </mxCell>
        <mxCell id="f8X2pZttK8cUpLkIfQlC-28" value="places: list [ Place ]" style="text;strokeColor=none;fillColor=none;align=left;verticalAlign=middle;spacingLeft=4;spacingRight=4;overflow=hidden;points=[[0,0.5],[1,0.5]];portConstraint=eastwest;rotatable=0;whiteSpace=wrap;html=1;" parent="f8X2pZttK8cUpLkIfQlC-26" vertex="1">
          <mxGeometry y="60" width="180" height="30" as="geometry" />
        </mxCell>
        <mxCell id="f8X2pZttK8cUpLkIfQlC-32" value="LanguageEnum" style="swimlane;fontStyle=0;childLayout=stackLayout;horizontal=1;startSize=30;horizontalStack=0;resizeParent=1;resizeParentMax=0;resizeLast=0;collapsible=1;marginBottom=0;whiteSpace=wrap;html=1;" parent="1" vertex="1">
          <mxGeometry x="1320" y="40" width="140" height="90" as="geometry" />
        </mxCell>
        <mxCell id="f8X2pZttK8cUpLkIfQlC-33" value="ru = &quot;ru&quot;" style="text;strokeColor=none;fillColor=none;align=left;verticalAlign=middle;spacingLeft=4;spacingRight=4;overflow=hidden;points=[[0,0.5],[1,0.5]];portConstraint=eastwest;rotatable=0;whiteSpace=wrap;html=1;" parent="f8X2pZttK8cUpLkIfQlC-32" vertex="1">
          <mxGeometry y="30" width="140" height="30" as="geometry" />
        </mxCell>
        <mxCell id="f8X2pZttK8cUpLkIfQlC-34" value="uz = &quot;uz&quot;" style="text;strokeColor=none;fillColor=none;align=left;verticalAlign=middle;spacingLeft=4;spacingRight=4;overflow=hidden;points=[[0,0.5],[1,0.5]];portConstraint=eastwest;rotatable=0;whiteSpace=wrap;html=1;" parent="f8X2pZttK8cUpLkIfQlC-32" vertex="1">
          <mxGeometry y="60" width="140" height="30" as="geometry" />
        </mxCell>
        <mxCell id="f8X2pZttK8cUpLkIfQlC-40" value="AvailableEnum" style="swimlane;fontStyle=0;childLayout=stackLayout;horizontal=1;startSize=30;horizontalStack=0;resizeParent=1;resizeParentMax=0;resizeLast=0;collapsible=1;marginBottom=0;whiteSpace=wrap;html=1;" parent="1" vertex="1">
          <mxGeometry x="600" y="179.94" width="140" height="90" as="geometry" />
        </mxCell>
        <mxCell id="f8X2pZttK8cUpLkIfQlC-41" value="available = &quot;available&quot;" style="text;strokeColor=none;fillColor=none;align=left;verticalAlign=middle;spacingLeft=4;spacingRight=4;overflow=hidden;points=[[0,0.5],[1,0.5]];portConstraint=eastwest;rotatable=0;whiteSpace=wrap;html=1;" parent="f8X2pZttK8cUpLkIfQlC-40" vertex="1">
          <mxGeometry y="30" width="140" height="30" as="geometry" />
        </mxCell>
        <mxCell id="f8X2pZttK8cUpLkIfQlC-42" value="absent = &quot;absent&quot;" style="text;strokeColor=none;fillColor=none;align=left;verticalAlign=middle;spacingLeft=4;spacingRight=4;overflow=hidden;points=[[0,0.5],[1,0.5]];portConstraint=eastwest;rotatable=0;whiteSpace=wrap;html=1;" parent="f8X2pZttK8cUpLkIfQlC-40" vertex="1">
          <mxGeometry y="60" width="140" height="30" as="geometry" />
        </mxCell>
        <mxCell id="f8X2pZttK8cUpLkIfQlC-44" value="Product" style="rounded=0;whiteSpace=wrap;html=1;fillColor=#008a00;fontColor=#ffffff;strokeColor=#005700;" parent="1" vertex="1">
          <mxGeometry y="-80" width="800" height="30" as="geometry" />
        </mxCell>
        <mxCell id="f8X2pZttK8cUpLkIfQlC-45" value="User" style="swimlane;fontStyle=0;childLayout=stackLayout;horizontal=1;startSize=30;horizontalStack=0;resizeParent=1;resizeParentMax=0;resizeLast=0;collapsible=1;marginBottom=0;whiteSpace=wrap;html=1;" parent="1" vertex="1">
          <mxGeometry x="930" y="40" width="170" height="150" as="geometry" />
        </mxCell>
        <mxCell id="f8X2pZttK8cUpLkIfQlC-46" value="id: UserId" style="text;strokeColor=none;fillColor=none;align=left;verticalAlign=middle;spacingLeft=4;spacingRight=4;overflow=hidden;points=[[0,0.5],[1,0.5]];portConstraint=eastwest;rotatable=0;whiteSpace=wrap;html=1;" parent="f8X2pZttK8cUpLkIfQlC-45" vertex="1">
          <mxGeometry y="30" width="170" height="30" as="geometry" />
        </mxCell>
        <mxCell id="f8X2pZttK8cUpLkIfQlC-47" value="name: str" style="text;strokeColor=none;fillColor=none;align=left;verticalAlign=middle;spacingLeft=4;spacingRight=4;overflow=hidden;points=[[0,0.5],[1,0.5]];portConstraint=eastwest;rotatable=0;whiteSpace=wrap;html=1;" parent="f8X2pZttK8cUpLkIfQlC-45" vertex="1">
          <mxGeometry y="60" width="170" height="30" as="geometry" />
        </mxCell>
        <mxCell id="f8X2pZttK8cUpLkIfQlC-48" value="role: RoleEnum" style="text;strokeColor=none;fillColor=none;align=left;verticalAlign=middle;spacingLeft=4;spacingRight=4;overflow=hidden;points=[[0,0.5],[1,0.5]];portConstraint=eastwest;rotatable=0;whiteSpace=wrap;html=1;" parent="f8X2pZttK8cUpLkIfQlC-45" vertex="1">
          <mxGeometry y="90" width="170" height="30" as="geometry" />
        </mxCell>
        <mxCell id="lFdyLkY2SjPW8qDEbbIa-1" value="language: LanguageEnum" style="text;strokeColor=none;fillColor=none;align=left;verticalAlign=middle;spacingLeft=4;spacingRight=4;overflow=hidden;points=[[0,0.5],[1,0.5]];portConstraint=eastwest;rotatable=0;whiteSpace=wrap;html=1;" parent="f8X2pZttK8cUpLkIfQlC-45" vertex="1">
          <mxGeometry y="120" width="170" height="30" as="geometry" />
        </mxCell>
        <mxCell id="f8X2pZttK8cUpLkIfQlC-53" style="edgeStyle=orthogonalEdgeStyle;rounded=0;orthogonalLoop=1;jettySize=auto;html=1;entryX=0;entryY=0.5;entryDx=0;entryDy=0;" parent="1" source="f8X2pZttK8cUpLkIfQlC-49" target="f8X2pZttK8cUpLkIfQlC-48" edge="1">
          <mxGeometry relative="1" as="geometry">
            <Array as="points">
              <mxPoint x="1150" y="210" />
              <mxPoint x="910" y="210" />
              <mxPoint x="910" y="145" />
            </Array>
          </mxGeometry>
        </mxCell>
        <mxCell id="f8X2pZttK8cUpLkIfQlC-49" value="RoleEnum" style="swimlane;fontStyle=0;childLayout=stackLayout;horizontal=1;startSize=30;horizontalStack=0;resizeParent=1;resizeParentMax=0;resizeLast=0;collapsible=1;marginBottom=0;whiteSpace=wrap;html=1;" parent="1" vertex="1">
          <mxGeometry x="1130" y="40" width="140" height="90" as="geometry" />
        </mxCell>
        <mxCell id="f8X2pZttK8cUpLkIfQlC-50" value="user = &quot;user&quot;" style="text;strokeColor=none;fillColor=none;align=left;verticalAlign=middle;spacingLeft=4;spacingRight=4;overflow=hidden;points=[[0,0.5],[1,0.5]];portConstraint=eastwest;rotatable=0;whiteSpace=wrap;html=1;" parent="f8X2pZttK8cUpLkIfQlC-49" vertex="1">
          <mxGeometry y="30" width="140" height="30" as="geometry" />
        </mxCell>
        <mxCell id="f8X2pZttK8cUpLkIfQlC-51" value="admin = &quot;admin&quot;" style="text;strokeColor=none;fillColor=none;align=left;verticalAlign=middle;spacingLeft=4;spacingRight=4;overflow=hidden;points=[[0,0.5],[1,0.5]];portConstraint=eastwest;rotatable=0;whiteSpace=wrap;html=1;" parent="f8X2pZttK8cUpLkIfQlC-49" vertex="1">
          <mxGeometry y="60" width="140" height="30" as="geometry" />
        </mxCell>
        <mxCell id="f8X2pZttK8cUpLkIfQlC-54" value="User" style="rounded=0;whiteSpace=wrap;html=1;fillColor=#0050ef;fontColor=#ffffff;strokeColor=#001DBC;" parent="1" vertex="1">
          <mxGeometry x="840" y="-80" width="400" height="30" as="geometry" />
        </mxCell>
        <mxCell id="f8X2pZttK8cUpLkIfQlC-55" value="Basket" style="swimlane;fontStyle=0;childLayout=stackLayout;horizontal=1;startSize=30;horizontalStack=0;resizeParent=1;resizeParentMax=0;resizeLast=0;collapsible=1;marginBottom=0;whiteSpace=wrap;html=1;" parent="1" vertex="1">
          <mxGeometry x="930" y="309.94" width="200" height="180" as="geometry" />
        </mxCell>
        <mxCell id="f8X2pZttK8cUpLkIfQlC-56" value="id: BasketId" style="text;strokeColor=none;fillColor=none;align=left;verticalAlign=middle;spacingLeft=4;spacingRight=4;overflow=hidden;points=[[0,0.5],[1,0.5]];portConstraint=eastwest;rotatable=0;whiteSpace=wrap;html=1;" parent="f8X2pZttK8cUpLkIfQlC-55" vertex="1">
          <mxGeometry y="30" width="200" height="30" as="geometry" />
        </mxCell>
        <mxCell id="f8X2pZttK8cUpLkIfQlC-57" value="user_id: UserId" style="text;strokeColor=none;fillColor=none;align=left;verticalAlign=middle;spacingLeft=4;spacingRight=4;overflow=hidden;points=[[0,0.5],[1,0.5]];portConstraint=eastwest;rotatable=0;whiteSpace=wrap;html=1;" parent="f8X2pZttK8cUpLkIfQlC-55" vertex="1">
          <mxGeometry y="60" width="200" height="30" as="geometry" />
        </mxCell>
        <mxCell id="f8X2pZttK8cUpLkIfQlC-58" value="products: list [ ProductId ]" style="text;strokeColor=none;fillColor=none;align=left;verticalAlign=middle;spacingLeft=4;spacingRight=4;overflow=hidden;points=[[0,0.5],[1,0.5]];portConstraint=eastwest;rotatable=0;whiteSpace=wrap;html=1;" parent="f8X2pZttK8cUpLkIfQlC-55" vertex="1">
          <mxGeometry y="90" width="200" height="30" as="geometry" />
        </mxCell>
        <mxCell id="f8X2pZttK8cUpLkIfQlC-61" value="amount: int" style="text;strokeColor=none;fillColor=none;align=left;verticalAlign=middle;spacingLeft=4;spacingRight=4;overflow=hidden;points=[[0,0.5],[1,0.5]];portConstraint=eastwest;rotatable=0;whiteSpace=wrap;html=1;" parent="f8X2pZttK8cUpLkIfQlC-55" vertex="1">
          <mxGeometry y="120" width="200" height="30" as="geometry" />
        </mxCell>
        <mxCell id="f8X2pZttK8cUpLkIfQlC-62" value="status: BasketStatusEnum" style="text;strokeColor=none;fillColor=none;align=left;verticalAlign=middle;spacingLeft=4;spacingRight=4;overflow=hidden;points=[[0,0.5],[1,0.5]];portConstraint=eastwest;rotatable=0;whiteSpace=wrap;html=1;" parent="f8X2pZttK8cUpLkIfQlC-55" vertex="1">
          <mxGeometry y="150" width="200" height="30" as="geometry" />
        </mxCell>
        <mxCell id="f8X2pZttK8cUpLkIfQlC-59" value="" style="shape=link;html=1;rounded=0;" parent="1" edge="1">
          <mxGeometry width="100" relative="1" as="geometry">
            <mxPoint y="560" as="sourcePoint" />
            <mxPoint x="800" y="560" as="targetPoint" />
          </mxGeometry>
        </mxCell>
        <mxCell id="f8X2pZttK8cUpLkIfQlC-60" value="" style="shape=link;html=1;rounded=0;" parent="1" edge="1">
          <mxGeometry width="100" relative="1" as="geometry">
            <mxPoint x="800" as="sourcePoint" />
            <mxPoint x="800" y="1360" as="targetPoint" />
          </mxGeometry>
        </mxCell>
        <mxCell id="f8X2pZttK8cUpLkIfQlC-68" style="edgeStyle=orthogonalEdgeStyle;rounded=0;orthogonalLoop=1;jettySize=auto;html=1;entryX=0;entryY=0.5;entryDx=0;entryDy=0;" parent="1" source="f8X2pZttK8cUpLkIfQlC-64" target="f8X2pZttK8cUpLkIfQlC-62" edge="1">
          <mxGeometry relative="1" as="geometry">
            <Array as="points">
              <mxPoint x="1190" y="510" />
              <mxPoint x="900" y="510" />
              <mxPoint x="900" y="475" />
            </Array>
          </mxGeometry>
        </mxCell>
        <mxCell id="f8X2pZttK8cUpLkIfQlC-64" value="BasketStatusEnum" style="swimlane;fontStyle=0;childLayout=stackLayout;horizontal=1;startSize=30;horizontalStack=0;resizeParent=1;resizeParentMax=0;resizeLast=0;collapsible=1;marginBottom=0;whiteSpace=wrap;html=1;" parent="1" vertex="1">
          <mxGeometry x="1170" y="309.94" width="140" height="90" as="geometry" />
        </mxCell>
        <mxCell id="f8X2pZttK8cUpLkIfQlC-65" value="assembly = &quot;assembly&quot;" style="text;strokeColor=none;fillColor=none;align=left;verticalAlign=middle;spacingLeft=4;spacingRight=4;overflow=hidden;points=[[0,0.5],[1,0.5]];portConstraint=eastwest;rotatable=0;whiteSpace=wrap;html=1;" parent="f8X2pZttK8cUpLkIfQlC-64" vertex="1">
          <mxGeometry y="30" width="140" height="30" as="geometry" />
        </mxCell>
        <mxCell id="f8X2pZttK8cUpLkIfQlC-66" value="ordered = &quot;ordered&quot;" style="text;strokeColor=none;fillColor=none;align=left;verticalAlign=middle;spacingLeft=4;spacingRight=4;overflow=hidden;points=[[0,0.5],[1,0.5]];portConstraint=eastwest;rotatable=0;whiteSpace=wrap;html=1;" parent="f8X2pZttK8cUpLkIfQlC-64" vertex="1">
          <mxGeometry y="60" width="140" height="30" as="geometry" />
        </mxCell>
        <mxCell id="f8X2pZttK8cUpLkIfQlC-69" value="" style="shape=link;html=1;rounded=0;" parent="1" edge="1">
          <mxGeometry width="100" relative="1" as="geometry">
            <mxPoint x="810" y="240" as="sourcePoint" />
            <mxPoint x="1520" y="240" as="targetPoint" />
          </mxGeometry>
        </mxCell>
        <mxCell id="f8X2pZttK8cUpLkIfQlC-70" value="" style="shape=link;html=1;rounded=0;width=-3.548387096774194;" parent="1" edge="1">
          <mxGeometry width="100" relative="1" as="geometry">
            <mxPoint x="1520" as="sourcePoint" />
            <mxPoint x="1520" y="240" as="targetPoint" />
          </mxGeometry>
        </mxCell>
        <mxCell id="f8X2pZttK8cUpLkIfQlC-71" value="" style="shape=link;html=1;rounded=0;width=-3.548387096774194;" parent="1" edge="1">
          <mxGeometry width="100" relative="1" as="geometry">
            <mxPoint x="1370" y="240" as="sourcePoint" />
            <mxPoint x="1370" y="520" as="targetPoint" />
          </mxGeometry>
        </mxCell>
        <mxCell id="f8X2pZttK8cUpLkIfQlC-72" value="" style="shape=link;html=1;rounded=0;" parent="1" edge="1">
          <mxGeometry width="100" relative="1" as="geometry">
            <mxPoint x="800" y="520" as="sourcePoint" />
            <mxPoint x="1370" y="520" as="targetPoint" />
          </mxGeometry>
        </mxCell>
        <mxCell id="f8X2pZttK8cUpLkIfQlC-73" value="Basket" style="rounded=0;whiteSpace=wrap;html=1;fillColor=#6a00ff;fontColor=#ffffff;strokeColor=#3700CC;" parent="1" vertex="1">
          <mxGeometry x="910" y="249.91" width="430" height="30.06" as="geometry" />
        </mxCell>
        <mxCell id="f8X2pZttK8cUpLkIfQlC-74" value="" style="shape=link;html=1;rounded=0;" parent="1" edge="1">
          <mxGeometry width="100" relative="1" as="geometry">
            <mxPoint y="1360" as="sourcePoint" />
            <mxPoint x="830" y="1360" as="targetPoint" />
          </mxGeometry>
        </mxCell>
        <mxCell id="f8X2pZttK8cUpLkIfQlC-75" value="Order" style="swimlane;fontStyle=0;childLayout=stackLayout;horizontal=1;startSize=30;horizontalStack=0;resizeParent=1;resizeParentMax=0;resizeLast=0;collapsible=1;marginBottom=0;whiteSpace=wrap;html=1;" parent="1" vertex="1">
          <mxGeometry x="280" y="760" width="240" height="420" as="geometry" />
        </mxCell>
        <mxCell id="f8X2pZttK8cUpLkIfQlC-76" value="id: OrderId" style="text;strokeColor=none;fillColor=none;align=left;verticalAlign=middle;spacingLeft=4;spacingRight=4;overflow=hidden;points=[[0,0.5],[1,0.5]];portConstraint=eastwest;rotatable=0;whiteSpace=wrap;html=1;" parent="f8X2pZttK8cUpLkIfQlC-75" vertex="1">
          <mxGeometry y="30" width="240" height="30" as="geometry" />
        </mxCell>
        <mxCell id="f8X2pZttK8cUpLkIfQlC-77" value="user_id: UserId" style="text;strokeColor=none;fillColor=none;align=left;verticalAlign=middle;spacingLeft=4;spacingRight=4;overflow=hidden;points=[[0,0.5],[1,0.5]];portConstraint=eastwest;rotatable=0;whiteSpace=wrap;html=1;" parent="f8X2pZttK8cUpLkIfQlC-75" vertex="1">
          <mxGeometry y="60" width="240" height="30" as="geometry" />
        </mxCell>
        <mxCell id="f8X2pZttK8cUpLkIfQlC-78" value="basket_id: BasketId" style="text;strokeColor=none;fillColor=none;align=left;verticalAlign=middle;spacingLeft=4;spacingRight=4;overflow=hidden;points=[[0,0.5],[1,0.5]];portConstraint=eastwest;rotatable=0;whiteSpace=wrap;html=1;" parent="f8X2pZttK8cUpLkIfQlC-75" vertex="1">
          <mxGeometry y="90" width="240" height="30" as="geometry" />
        </mxCell>
        <mxCell id="f8X2pZttK8cUpLkIfQlC-79" value="user_location: Location" style="text;strokeColor=none;fillColor=none;align=left;verticalAlign=middle;spacingLeft=4;spacingRight=4;overflow=hidden;points=[[0,0.5],[1,0.5]];portConstraint=eastwest;rotatable=0;whiteSpace=wrap;html=1;" parent="f8X2pZttK8cUpLkIfQlC-75" vertex="1">
          <mxGeometry y="120" width="240" height="30" as="geometry" />
        </mxCell>
        <mxCell id="f8X2pZttK8cUpLkIfQlC-80" value="place_location: Location" style="text;strokeColor=none;fillColor=none;align=left;verticalAlign=middle;spacingLeft=4;spacingRight=4;overflow=hidden;points=[[0,0.5],[1,0.5]];portConstraint=eastwest;rotatable=0;whiteSpace=wrap;html=1;" parent="f8X2pZttK8cUpLkIfQlC-75" vertex="1">
          <mxGeometry y="150" width="240" height="30" as="geometry" />
        </mxCell>
        <mxCell id="f8X2pZttK8cUpLkIfQlC-81" value="distance: int" style="text;strokeColor=none;fillColor=none;align=left;verticalAlign=middle;spacingLeft=4;spacingRight=4;overflow=hidden;points=[[0,0.5],[1,0.5]];portConstraint=eastwest;rotatable=0;whiteSpace=wrap;html=1;" parent="f8X2pZttK8cUpLkIfQlC-75" vertex="1">
          <mxGeometry y="180" width="240" height="30" as="geometry" />
        </mxCell>
        <mxCell id="f8X2pZttK8cUpLkIfQlC-83" value="amount_order: int" style="text;strokeColor=none;fillColor=none;align=left;verticalAlign=middle;spacingLeft=4;spacingRight=4;overflow=hidden;points=[[0,0.5],[1,0.5]];portConstraint=eastwest;rotatable=0;whiteSpace=wrap;html=1;" parent="f8X2pZttK8cUpLkIfQlC-75" vertex="1">
          <mxGeometry y="210" width="240" height="30" as="geometry" />
        </mxCell>
        <mxCell id="f8X2pZttK8cUpLkIfQlC-82" value="amount_delivery: int" style="text;strokeColor=none;fillColor=none;align=left;verticalAlign=middle;spacingLeft=4;spacingRight=4;overflow=hidden;points=[[0,0.5],[1,0.5]];portConstraint=eastwest;rotatable=0;whiteSpace=wrap;html=1;" parent="f8X2pZttK8cUpLkIfQlC-75" vertex="1">
          <mxGeometry y="240" width="240" height="30" as="geometry" />
        </mxCell>
        <mxCell id="f8X2pZttK8cUpLkIfQlC-84" value="phone_number: str" style="text;strokeColor=none;fillColor=none;align=left;verticalAlign=middle;spacingLeft=4;spacingRight=4;overflow=hidden;points=[[0,0.5],[1,0.5]];portConstraint=eastwest;rotatable=0;whiteSpace=wrap;html=1;" parent="f8X2pZttK8cUpLkIfQlC-75" vertex="1">
          <mxGeometry y="270" width="240" height="30" as="geometry" />
        </mxCell>
        <mxCell id="f8X2pZttK8cUpLkIfQlC-85" value="comment: str" style="text;strokeColor=none;fillColor=none;align=left;verticalAlign=middle;spacingLeft=4;spacingRight=4;overflow=hidden;points=[[0,0.5],[1,0.5]];portConstraint=eastwest;rotatable=0;whiteSpace=wrap;html=1;" parent="f8X2pZttK8cUpLkIfQlC-75" vertex="1">
          <mxGeometry y="300" width="240" height="30" as="geometry" />
        </mxCell>
        <mxCell id="f8X2pZttK8cUpLkIfQlC-86" value="payment_method: PaymentMethodEnum" style="text;strokeColor=none;fillColor=none;align=left;verticalAlign=middle;spacingLeft=4;spacingRight=4;overflow=hidden;points=[[0,0.5],[1,0.5]];portConstraint=eastwest;rotatable=0;whiteSpace=wrap;html=1;" parent="f8X2pZttK8cUpLkIfQlC-75" vertex="1">
          <mxGeometry y="330" width="240" height="30" as="geometry" />
        </mxCell>
        <mxCell id="f8X2pZttK8cUpLkIfQlC-87" value="status: OrderStatusEnum" style="text;strokeColor=none;fillColor=none;align=left;verticalAlign=middle;spacingLeft=4;spacingRight=4;overflow=hidden;points=[[0,0.5],[1,0.5]];portConstraint=eastwest;rotatable=0;whiteSpace=wrap;html=1;" parent="f8X2pZttK8cUpLkIfQlC-75" vertex="1">
          <mxGeometry y="360" width="240" height="30" as="geometry" />
        </mxCell>
        <mxCell id="f8X2pZttK8cUpLkIfQlC-88" value="form: OrderFormEnum" style="text;strokeColor=none;fillColor=none;align=left;verticalAlign=middle;spacingLeft=4;spacingRight=4;overflow=hidden;points=[[0,0.5],[1,0.5]];portConstraint=eastwest;rotatable=0;whiteSpace=wrap;html=1;" parent="f8X2pZttK8cUpLkIfQlC-75" vertex="1">
          <mxGeometry y="390" width="240" height="30" as="geometry" />
        </mxCell>
        <mxCell id="f8X2pZttK8cUpLkIfQlC-93" style="edgeStyle=orthogonalEdgeStyle;rounded=0;orthogonalLoop=1;jettySize=auto;html=1;entryX=0;entryY=0.5;entryDx=0;entryDy=0;" parent="1" source="f8X2pZttK8cUpLkIfQlC-89" target="f8X2pZttK8cUpLkIfQlC-86" edge="1">
          <mxGeometry relative="1" as="geometry">
            <Array as="points">
              <mxPoint x="260" y="645" />
              <mxPoint x="260" y="1105" />
            </Array>
          </mxGeometry>
        </mxCell>
        <mxCell id="f8X2pZttK8cUpLkIfQlC-89" value="PaymentMethodEnum" style="swimlane;fontStyle=0;childLayout=stackLayout;horizontal=1;startSize=30;horizontalStack=0;resizeParent=1;resizeParentMax=0;resizeLast=0;collapsible=1;marginBottom=0;whiteSpace=wrap;html=1;" parent="1" vertex="1">
          <mxGeometry x="40" y="600" width="140" height="90" as="geometry" />
        </mxCell>
        <mxCell id="f8X2pZttK8cUpLkIfQlC-90" value="payme = &quot;payme&quot;" style="text;strokeColor=none;fillColor=none;align=left;verticalAlign=middle;spacingLeft=4;spacingRight=4;overflow=hidden;points=[[0,0.5],[1,0.5]];portConstraint=eastwest;rotatable=0;whiteSpace=wrap;html=1;" parent="f8X2pZttK8cUpLkIfQlC-89" vertex="1">
          <mxGeometry y="30" width="140" height="30" as="geometry" />
        </mxCell>
        <mxCell id="f8X2pZttK8cUpLkIfQlC-91" value="click = &quot;click&quot;:" style="text;strokeColor=none;fillColor=none;align=left;verticalAlign=middle;spacingLeft=4;spacingRight=4;overflow=hidden;points=[[0,0.5],[1,0.5]];portConstraint=eastwest;rotatable=0;whiteSpace=wrap;html=1;" parent="f8X2pZttK8cUpLkIfQlC-89" vertex="1">
          <mxGeometry y="60" width="140" height="30" as="geometry" />
        </mxCell>
        <mxCell id="f8X2pZttK8cUpLkIfQlC-98" style="edgeStyle=orthogonalEdgeStyle;rounded=0;orthogonalLoop=1;jettySize=auto;html=1;entryX=0;entryY=0.5;entryDx=0;entryDy=0;" parent="1" source="f8X2pZttK8cUpLkIfQlC-94" target="f8X2pZttK8cUpLkIfQlC-87" edge="1">
          <mxGeometry relative="1" as="geometry">
            <Array as="points">
              <mxPoint x="250" y="805" />
              <mxPoint x="250" y="1135" />
            </Array>
          </mxGeometry>
        </mxCell>
        <mxCell id="f8X2pZttK8cUpLkIfQlC-94" value="OrderStatusEnum" style="swimlane;fontStyle=0;childLayout=stackLayout;horizontal=1;startSize=30;horizontalStack=0;resizeParent=1;resizeParentMax=0;resizeLast=0;collapsible=1;marginBottom=0;whiteSpace=wrap;html=1;" parent="1" vertex="1">
          <mxGeometry x="40" y="760" width="140" height="90" as="geometry" />
        </mxCell>
        <mxCell id="f8X2pZttK8cUpLkIfQlC-95" value="waiting = &quot;waiting&quot;" style="text;strokeColor=none;fillColor=none;align=left;verticalAlign=middle;spacingLeft=4;spacingRight=4;overflow=hidden;points=[[0,0.5],[1,0.5]];portConstraint=eastwest;rotatable=0;whiteSpace=wrap;html=1;" parent="f8X2pZttK8cUpLkIfQlC-94" vertex="1">
          <mxGeometry y="30" width="140" height="30" as="geometry" />
        </mxCell>
        <mxCell id="f8X2pZttK8cUpLkIfQlC-96" value="accepted = &quot;accepted&quot;" style="text;strokeColor=none;fillColor=none;align=left;verticalAlign=middle;spacingLeft=4;spacingRight=4;overflow=hidden;points=[[0,0.5],[1,0.5]];portConstraint=eastwest;rotatable=0;whiteSpace=wrap;html=1;" parent="f8X2pZttK8cUpLkIfQlC-94" vertex="1">
          <mxGeometry y="60" width="140" height="30" as="geometry" />
        </mxCell>
        <mxCell id="f8X2pZttK8cUpLkIfQlC-103" style="edgeStyle=orthogonalEdgeStyle;rounded=0;orthogonalLoop=1;jettySize=auto;html=1;entryX=0;entryY=0.5;entryDx=0;entryDy=0;" parent="1" source="f8X2pZttK8cUpLkIfQlC-99" target="f8X2pZttK8cUpLkIfQlC-88" edge="1">
          <mxGeometry relative="1" as="geometry">
            <Array as="points">
              <mxPoint x="240" y="925" />
              <mxPoint x="240" y="1165" />
            </Array>
          </mxGeometry>
        </mxCell>
        <mxCell id="f8X2pZttK8cUpLkIfQlC-99" value="OrderFormEnum" style="swimlane;fontStyle=0;childLayout=stackLayout;horizontal=1;startSize=30;horizontalStack=0;resizeParent=1;resizeParentMax=0;resizeLast=0;collapsible=1;marginBottom=0;whiteSpace=wrap;html=1;" parent="1" vertex="1">
          <mxGeometry x="40" y="880" width="140" height="90" as="geometry" />
        </mxCell>
        <mxCell id="f8X2pZttK8cUpLkIfQlC-100" value="delivery = &quot;delivery&quot;" style="text;strokeColor=none;fillColor=none;align=left;verticalAlign=middle;spacingLeft=4;spacingRight=4;overflow=hidden;points=[[0,0.5],[1,0.5]];portConstraint=eastwest;rotatable=0;whiteSpace=wrap;html=1;" parent="f8X2pZttK8cUpLkIfQlC-99" vertex="1">
          <mxGeometry y="30" width="140" height="30" as="geometry" />
        </mxCell>
        <mxCell id="f8X2pZttK8cUpLkIfQlC-101" value="export = &quot;export&quot;" style="text;strokeColor=none;fillColor=none;align=left;verticalAlign=middle;spacingLeft=4;spacingRight=4;overflow=hidden;points=[[0,0.5],[1,0.5]];portConstraint=eastwest;rotatable=0;whiteSpace=wrap;html=1;" parent="f8X2pZttK8cUpLkIfQlC-99" vertex="1">
          <mxGeometry y="60" width="140" height="30" as="geometry" />
        </mxCell>
        <mxCell id="f8X2pZttK8cUpLkIfQlC-104" style="edgeStyle=orthogonalEdgeStyle;rounded=0;orthogonalLoop=1;jettySize=auto;html=1;entryX=0;entryY=0.5;entryDx=0;entryDy=0;exitX=1;exitY=0.5;exitDx=0;exitDy=0;fillColor=#008a00;strokeColor=#005700;strokeWidth=5;" parent="1" source="f8X2pZttK8cUpLkIfQlC-2" target="f8X2pZttK8cUpLkIfQlC-58" edge="1">
          <mxGeometry relative="1" as="geometry">
            <Array as="points">
              <mxPoint x="340" y="105" />
              <mxPoint x="340" y="50" />
              <mxPoint x="580" y="50" />
              <mxPoint x="580" y="415" />
            </Array>
          </mxGeometry>
        </mxCell>
        <mxCell id="f8X2pZttK8cUpLkIfQlC-105" style="edgeStyle=orthogonalEdgeStyle;rounded=0;orthogonalLoop=1;jettySize=auto;html=1;entryX=1;entryY=0.5;entryDx=0;entryDy=0;fillColor=#008a00;strokeColor=#005700;strokeWidth=5;" parent="1" source="f8X2pZttK8cUpLkIfQlC-56" target="f8X2pZttK8cUpLkIfQlC-78" edge="1">
          <mxGeometry relative="1" as="geometry">
            <mxPoint x="700" y="680" as="targetPoint" />
            <Array as="points">
              <mxPoint x="880" y="355" />
              <mxPoint x="880" y="865" />
            </Array>
          </mxGeometry>
        </mxCell>
        <mxCell id="f8X2pZttK8cUpLkIfQlC-107" style="edgeStyle=orthogonalEdgeStyle;rounded=0;orthogonalLoop=1;jettySize=auto;html=1;fillColor=#008a00;strokeColor=#005700;strokeWidth=5;entryX=1;entryY=0.5;entryDx=0;entryDy=0;" parent="1" source="f8X2pZttK8cUpLkIfQlC-46" target="f8X2pZttK8cUpLkIfQlC-77" edge="1">
          <mxGeometry relative="1" as="geometry">
            <mxPoint x="640" y="820" as="targetPoint" />
            <Array as="points">
              <mxPoint x="850" y="85" />
              <mxPoint x="850" y="630" />
              <mxPoint x="560" y="630" />
              <mxPoint x="560" y="835" />
            </Array>
          </mxGeometry>
        </mxCell>
        <mxCell id="TQqatjUG6RQWoEjQ0GCe-1" style="edgeStyle=orthogonalEdgeStyle;rounded=0;orthogonalLoop=1;jettySize=auto;html=1;entryX=0;entryY=0.5;entryDx=0;entryDy=0;fillColor=#008a00;strokeColor=#005700;strokeWidth=5;" parent="1" source="f8X2pZttK8cUpLkIfQlC-46" target="f8X2pZttK8cUpLkIfQlC-57" edge="1">
          <mxGeometry relative="1" as="geometry">
            <Array as="points">
              <mxPoint x="890" y="85" />
              <mxPoint x="890" y="385" />
            </Array>
          </mxGeometry>
        </mxCell>
        <mxCell id="twXQUucYNknGmjemgQED-1" value="Order" style="rounded=0;whiteSpace=wrap;html=1;fillColor=#1ba1e2;fontColor=#ffffff;strokeColor=#006EAF;" parent="1" vertex="1">
          <mxGeometry x="10" y="560" width="780" height="30" as="geometry" />
        </mxCell>
      </root>
    </mxGraphModel>
  </diagram>
  <diagram id="DrVVlcEoGO_1_QCgO86h" name="use cases">
    <mxGraphModel dx="1660" dy="818" grid="1" gridSize="10" guides="1" tooltips="1" connect="1" arrows="1" fold="1" page="1" pageScale="1" pageWidth="827" pageHeight="1169" math="0" shadow="0">
      <root>
        <mxCell id="0" />
        <mxCell id="1" parent="0" />
        <mxCell id="j9-YOrf4wsJBsTas6Yvu-1" value="Registration" style="rounded=0;whiteSpace=wrap;html=1;" parent="1" vertex="1">
          <mxGeometry x="40" y="40" width="120" height="60" as="geometry" />
        </mxCell>
        <mxCell id="I3IJ0A77odYWCxq04I0l-3" style="edgeStyle=orthogonalEdgeStyle;rounded=0;orthogonalLoop=1;jettySize=auto;html=1;entryX=0;entryY=0.5;entryDx=0;entryDy=0;" parent="1" source="I3IJ0A77odYWCxq04I0l-1" target="I3IJ0A77odYWCxq04I0l-2" edge="1">
          <mxGeometry relative="1" as="geometry" />
        </mxCell>
        <mxCell id="I3IJ0A77odYWCxq04I0l-1" value="Update user data" style="rounded=0;whiteSpace=wrap;html=1;" parent="1" vertex="1">
          <mxGeometry x="40" y="120" width="120" height="60" as="geometry" />
        </mxCell>
        <mxCell id="I3IJ0A77odYWCxq04I0l-2" value="User" style="rounded=0;whiteSpace=wrap;html=1;" parent="1" vertex="1">
          <mxGeometry x="200" y="120" width="120" height="60" as="geometry" />
        </mxCell>
        <mxCell id="I3IJ0A77odYWCxq04I0l-4" value="" style="edgeStyle=orthogonalEdgeStyle;rounded=0;orthogonalLoop=1;jettySize=auto;html=1;" parent="1" source="j9-YOrf4wsJBsTas6Yvu-1" target="j9-YOrf4wsJBsTas6Yvu-3" edge="1">
          <mxGeometry relative="1" as="geometry">
            <mxPoint x="240" y="70" as="targetPoint" />
            <mxPoint x="160" y="70" as="sourcePoint" />
          </mxGeometry>
        </mxCell>
        <mxCell id="j9-YOrf4wsJBsTas6Yvu-3" value="User" style="rounded=0;whiteSpace=wrap;html=1;" parent="1" vertex="1">
          <mxGeometry x="200" y="40" width="120" height="60" as="geometry" />
        </mxCell>
        <mxCell id="I3IJ0A77odYWCxq04I0l-8" style="edgeStyle=orthogonalEdgeStyle;rounded=0;orthogonalLoop=1;jettySize=auto;html=1;entryX=0;entryY=0.5;entryDx=0;entryDy=0;" parent="1" source="I3IJ0A77odYWCxq04I0l-6" target="I3IJ0A77odYWCxq04I0l-7" edge="1">
          <mxGeometry relative="1" as="geometry" />
        </mxCell>
        <mxCell id="I3IJ0A77odYWCxq04I0l-6" value="Get menu categories" style="rounded=0;whiteSpace=wrap;html=1;" parent="1" vertex="1">
          <mxGeometry x="40" y="200" width="120" height="60" as="geometry" />
        </mxCell>
        <mxCell id="I3IJ0A77odYWCxq04I0l-7" value="ProductCategories" style="rounded=0;whiteSpace=wrap;html=1;" parent="1" vertex="1">
          <mxGeometry x="200" y="200" width="120" height="60" as="geometry" />
        </mxCell>
        <mxCell id="I3IJ0A77odYWCxq04I0l-11" style="edgeStyle=orthogonalEdgeStyle;rounded=0;orthogonalLoop=1;jettySize=auto;html=1;entryX=0;entryY=0.5;entryDx=0;entryDy=0;" parent="1" source="I3IJ0A77odYWCxq04I0l-9" target="I3IJ0A77odYWCxq04I0l-10" edge="1">
          <mxGeometry relative="1" as="geometry" />
        </mxCell>
        <mxCell id="I3IJ0A77odYWCxq04I0l-9" value="Get category products" style="rounded=0;whiteSpace=wrap;html=1;" parent="1" vertex="1">
          <mxGeometry x="40" y="280" width="120" height="60" as="geometry" />
        </mxCell>
        <mxCell id="I3IJ0A77odYWCxq04I0l-10" value="Product" style="rounded=0;whiteSpace=wrap;html=1;" parent="1" vertex="1">
          <mxGeometry x="200" y="280" width="120" height="60" as="geometry" />
        </mxCell>
        <mxCell id="I3IJ0A77odYWCxq04I0l-14" style="edgeStyle=orthogonalEdgeStyle;rounded=0;orthogonalLoop=1;jettySize=auto;html=1;entryX=0;entryY=0.5;entryDx=0;entryDy=0;" parent="1" source="I3IJ0A77odYWCxq04I0l-12" target="I3IJ0A77odYWCxq04I0l-13" edge="1">
          <mxGeometry relative="1" as="geometry" />
        </mxCell>
        <mxCell id="I3IJ0A77odYWCxq04I0l-12" value="Get item" style="rounded=0;whiteSpace=wrap;html=1;" parent="1" vertex="1">
          <mxGeometry x="40" y="360" width="120" height="60" as="geometry" />
        </mxCell>
        <mxCell id="I3IJ0A77odYWCxq04I0l-13" value="Product" style="rounded=0;whiteSpace=wrap;html=1;" parent="1" vertex="1">
          <mxGeometry x="200" y="360" width="120" height="60" as="geometry" />
        </mxCell>
        <mxCell id="I3IJ0A77odYWCxq04I0l-20" style="edgeStyle=orthogonalEdgeStyle;rounded=0;orthogonalLoop=1;jettySize=auto;html=1;entryX=0;entryY=0.5;entryDx=0;entryDy=0;" parent="1" source="I3IJ0A77odYWCxq04I0l-15" target="I3IJ0A77odYWCxq04I0l-17" edge="1">
          <mxGeometry relative="1" as="geometry" />
        </mxCell>
        <mxCell id="I3IJ0A77odYWCxq04I0l-15" value="Add to Basket another product" style="rounded=0;whiteSpace=wrap;html=1;" parent="1" vertex="1">
          <mxGeometry x="40" y="440" width="120" height="60" as="geometry" />
        </mxCell>
        <mxCell id="I3IJ0A77odYWCxq04I0l-16" value="Basket" style="rounded=0;whiteSpace=wrap;html=1;" parent="1" vertex="1">
          <mxGeometry x="360" y="440" width="120" height="60" as="geometry" />
        </mxCell>
        <mxCell id="I3IJ0A77odYWCxq04I0l-21" style="edgeStyle=orthogonalEdgeStyle;rounded=0;orthogonalLoop=1;jettySize=auto;html=1;" parent="1" source="I3IJ0A77odYWCxq04I0l-17" target="I3IJ0A77odYWCxq04I0l-16" edge="1">
          <mxGeometry relative="1" as="geometry" />
        </mxCell>
        <mxCell id="I3IJ0A77odYWCxq04I0l-17" value="Product" style="rounded=0;whiteSpace=wrap;html=1;" parent="1" vertex="1">
          <mxGeometry x="200" y="440" width="120" height="60" as="geometry" />
        </mxCell>
        <mxCell id="I3IJ0A77odYWCxq04I0l-26" style="edgeStyle=orthogonalEdgeStyle;rounded=0;orthogonalLoop=1;jettySize=auto;html=1;entryX=0;entryY=0.5;entryDx=0;entryDy=0;" parent="1" source="I3IJ0A77odYWCxq04I0l-22" target="I3IJ0A77odYWCxq04I0l-24" edge="1">
          <mxGeometry relative="1" as="geometry" />
        </mxCell>
        <mxCell id="I3IJ0A77odYWCxq04I0l-22" value="Add another modification exist product" style="rounded=0;whiteSpace=wrap;html=1;" parent="1" vertex="1">
          <mxGeometry x="40" y="520" width="120" height="60" as="geometry" />
        </mxCell>
        <mxCell id="I3IJ0A77odYWCxq04I0l-27" value="" style="edgeStyle=orthogonalEdgeStyle;rounded=0;orthogonalLoop=1;jettySize=auto;html=1;" parent="1" source="I3IJ0A77odYWCxq04I0l-24" target="I3IJ0A77odYWCxq04I0l-25" edge="1">
          <mxGeometry relative="1" as="geometry" />
        </mxCell>
        <mxCell id="I3IJ0A77odYWCxq04I0l-24" value="Product" style="rounded=0;whiteSpace=wrap;html=1;" parent="1" vertex="1">
          <mxGeometry x="200" y="520" width="120" height="60" as="geometry" />
        </mxCell>
        <mxCell id="I3IJ0A77odYWCxq04I0l-25" value="Basket" style="rounded=0;whiteSpace=wrap;html=1;" parent="1" vertex="1">
          <mxGeometry x="360" y="520" width="120" height="60" as="geometry" />
        </mxCell>
        <mxCell id="I3IJ0A77odYWCxq04I0l-32" style="edgeStyle=orthogonalEdgeStyle;rounded=0;orthogonalLoop=1;jettySize=auto;html=1;entryX=0;entryY=0.5;entryDx=0;entryDy=0;" parent="1" source="I3IJ0A77odYWCxq04I0l-28" target="I3IJ0A77odYWCxq04I0l-30" edge="1">
          <mxGeometry relative="1" as="geometry" />
        </mxCell>
        <mxCell id="I3IJ0A77odYWCxq04I0l-28" value="Add same product" style="rounded=0;whiteSpace=wrap;html=1;" parent="1" vertex="1">
          <mxGeometry x="40" y="600" width="120" height="60" as="geometry" />
        </mxCell>
        <mxCell id="I3IJ0A77odYWCxq04I0l-33" style="edgeStyle=orthogonalEdgeStyle;rounded=0;orthogonalLoop=1;jettySize=auto;html=1;entryX=0;entryY=0.5;entryDx=0;entryDy=0;" parent="1" source="I3IJ0A77odYWCxq04I0l-30" target="I3IJ0A77odYWCxq04I0l-31" edge="1">
          <mxGeometry relative="1" as="geometry" />
        </mxCell>
        <mxCell id="I3IJ0A77odYWCxq04I0l-30" value="Product" style="rounded=0;whiteSpace=wrap;html=1;" parent="1" vertex="1">
          <mxGeometry x="200" y="600" width="120" height="60" as="geometry" />
        </mxCell>
        <mxCell id="I3IJ0A77odYWCxq04I0l-31" value="Basket" style="rounded=0;whiteSpace=wrap;html=1;" parent="1" vertex="1">
          <mxGeometry x="360" y="600" width="120" height="60" as="geometry" />
        </mxCell>
        <mxCell id="ydnttBJe6MJWkBnV4oyo-6" style="edgeStyle=orthogonalEdgeStyle;rounded=0;orthogonalLoop=1;jettySize=auto;html=1;entryX=0;entryY=0.5;entryDx=0;entryDy=0;" parent="1" source="I3IJ0A77odYWCxq04I0l-40" target="ydnttBJe6MJWkBnV4oyo-1" edge="1">
          <mxGeometry relative="1" as="geometry" />
        </mxCell>
        <mxCell id="I3IJ0A77odYWCxq04I0l-40" value="Create order" style="rounded=0;whiteSpace=wrap;html=1;" parent="1" vertex="1">
          <mxGeometry x="40" y="680" width="120" height="60" as="geometry" />
        </mxCell>
        <mxCell id="ydnttBJe6MJWkBnV4oyo-4" style="edgeStyle=orthogonalEdgeStyle;rounded=0;orthogonalLoop=1;jettySize=auto;html=1;entryX=0;entryY=0.5;entryDx=0;entryDy=0;" parent="1" source="ydnttBJe6MJWkBnV4oyo-1" target="ydnttBJe6MJWkBnV4oyo-2" edge="1">
          <mxGeometry relative="1" as="geometry" />
        </mxCell>
        <mxCell id="ydnttBJe6MJWkBnV4oyo-1" value="Basket" style="rounded=0;whiteSpace=wrap;html=1;" parent="1" vertex="1">
          <mxGeometry x="200" y="680" width="120" height="60" as="geometry" />
        </mxCell>
        <mxCell id="ydnttBJe6MJWkBnV4oyo-2" value="Order" style="rounded=0;whiteSpace=wrap;html=1;" parent="1" vertex="1">
          <mxGeometry x="360" y="680" width="120" height="60" as="geometry" />
        </mxCell>
        <mxCell id="ydnttBJe6MJWkBnV4oyo-13" style="edgeStyle=orthogonalEdgeStyle;rounded=0;orthogonalLoop=1;jettySize=auto;html=1;entryX=0;entryY=0.5;entryDx=0;entryDy=0;" parent="1" source="ydnttBJe6MJWkBnV4oyo-7" target="ydnttBJe6MJWkBnV4oyo-9" edge="1">
          <mxGeometry relative="1" as="geometry" />
        </mxCell>
        <mxCell id="ydnttBJe6MJWkBnV4oyo-7" value="Continue order" style="rounded=0;whiteSpace=wrap;html=1;" parent="1" vertex="1">
          <mxGeometry x="40" y="760" width="120" height="60" as="geometry" />
        </mxCell>
        <mxCell id="ydnttBJe6MJWkBnV4oyo-8" style="edgeStyle=orthogonalEdgeStyle;rounded=0;orthogonalLoop=1;jettySize=auto;html=1;entryX=0;entryY=0.5;entryDx=0;entryDy=0;" parent="1" source="ydnttBJe6MJWkBnV4oyo-9" target="ydnttBJe6MJWkBnV4oyo-11" edge="1">
          <mxGeometry relative="1" as="geometry" />
        </mxCell>
        <mxCell id="ydnttBJe6MJWkBnV4oyo-9" value="Basket" style="rounded=0;whiteSpace=wrap;html=1;" parent="1" vertex="1">
          <mxGeometry x="200" y="760" width="120" height="60" as="geometry" />
        </mxCell>
        <mxCell id="ydnttBJe6MJWkBnV4oyo-11" value="Order" style="rounded=0;whiteSpace=wrap;html=1;" parent="1" vertex="1">
          <mxGeometry x="360" y="760" width="120" height="60" as="geometry" />
        </mxCell>
        <mxCell id="HzMSSjzRzOOwqQ14_DTC-3" style="edgeStyle=orthogonalEdgeStyle;rounded=0;orthogonalLoop=1;jettySize=auto;html=1;entryX=0;entryY=0.5;entryDx=0;entryDy=0;" parent="1" source="HzMSSjzRzOOwqQ14_DTC-1" target="HzMSSjzRzOOwqQ14_DTC-2" edge="1">
          <mxGeometry relative="1" as="geometry" />
        </mxCell>
        <mxCell id="HzMSSjzRzOOwqQ14_DTC-1" value="Add Product" style="rounded=0;whiteSpace=wrap;html=1;" parent="1" vertex="1">
          <mxGeometry x="40" y="880" width="120" height="60" as="geometry" />
        </mxCell>
        <mxCell id="HzMSSjzRzOOwqQ14_DTC-2" value="Product" style="rounded=0;whiteSpace=wrap;html=1;" parent="1" vertex="1">
          <mxGeometry x="200" y="880" width="120" height="60" as="geometry" />
        </mxCell>
        <mxCell id="HzMSSjzRzOOwqQ14_DTC-6" style="edgeStyle=orthogonalEdgeStyle;rounded=0;orthogonalLoop=1;jettySize=auto;html=1;entryX=0;entryY=0.5;entryDx=0;entryDy=0;" parent="1" source="HzMSSjzRzOOwqQ14_DTC-4" target="HzMSSjzRzOOwqQ14_DTC-5" edge="1">
          <mxGeometry relative="1" as="geometry" />
        </mxCell>
        <mxCell id="HzMSSjzRzOOwqQ14_DTC-4" value="Edit Product" style="rounded=0;whiteSpace=wrap;html=1;" parent="1" vertex="1">
          <mxGeometry x="40" y="960" width="120" height="60" as="geometry" />
        </mxCell>
        <mxCell id="HzMSSjzRzOOwqQ14_DTC-5" value="Product" style="rounded=0;whiteSpace=wrap;html=1;" parent="1" vertex="1">
          <mxGeometry x="200" y="960" width="120" height="60" as="geometry" />
        </mxCell>
        <mxCell id="HzMSSjzRzOOwqQ14_DTC-10" style="edgeStyle=orthogonalEdgeStyle;rounded=0;orthogonalLoop=1;jettySize=auto;html=1;entryX=0;entryY=0.5;entryDx=0;entryDy=0;" parent="1" source="HzMSSjzRzOOwqQ14_DTC-7" target="HzMSSjzRzOOwqQ14_DTC-8" edge="1">
          <mxGeometry relative="1" as="geometry" />
        </mxCell>
        <mxCell id="HzMSSjzRzOOwqQ14_DTC-7" value="Add Place" style="rounded=0;whiteSpace=wrap;html=1;" parent="1" vertex="1">
          <mxGeometry x="40" y="1040" width="120" height="60" as="geometry" />
        </mxCell>
        <mxCell id="HzMSSjzRzOOwqQ14_DTC-11" style="edgeStyle=orthogonalEdgeStyle;rounded=0;orthogonalLoop=1;jettySize=auto;html=1;entryX=0;entryY=0.5;entryDx=0;entryDy=0;" parent="1" source="HzMSSjzRzOOwqQ14_DTC-8" target="HzMSSjzRzOOwqQ14_DTC-9" edge="1">
          <mxGeometry relative="1" as="geometry" />
        </mxCell>
        <mxCell id="HzMSSjzRzOOwqQ14_DTC-8" value="Place" style="rounded=0;whiteSpace=wrap;html=1;" parent="1" vertex="1">
          <mxGeometry x="200" y="1040" width="120" height="60" as="geometry" />
        </mxCell>
        <mxCell id="HzMSSjzRzOOwqQ14_DTC-9" value="Product" style="rounded=0;whiteSpace=wrap;html=1;" parent="1" vertex="1">
          <mxGeometry x="360" y="1040" width="120" height="60" as="geometry" />
        </mxCell>
        <mxCell id="HzMSSjzRzOOwqQ14_DTC-16" style="edgeStyle=orthogonalEdgeStyle;rounded=0;orthogonalLoop=1;jettySize=auto;html=1;entryX=0;entryY=0.5;entryDx=0;entryDy=0;" parent="1" source="HzMSSjzRzOOwqQ14_DTC-13" target="HzMSSjzRzOOwqQ14_DTC-14" edge="1">
          <mxGeometry relative="1" as="geometry" />
        </mxCell>
        <mxCell id="HzMSSjzRzOOwqQ14_DTC-13" value="Delete Place" style="rounded=0;whiteSpace=wrap;html=1;" parent="1" vertex="1">
          <mxGeometry x="40" y="1120" width="120" height="60" as="geometry" />
        </mxCell>
        <mxCell id="HzMSSjzRzOOwqQ14_DTC-17" style="edgeStyle=orthogonalEdgeStyle;rounded=0;orthogonalLoop=1;jettySize=auto;html=1;" parent="1" source="HzMSSjzRzOOwqQ14_DTC-14" target="HzMSSjzRzOOwqQ14_DTC-15" edge="1">
          <mxGeometry relative="1" as="geometry" />
        </mxCell>
        <mxCell id="HzMSSjzRzOOwqQ14_DTC-14" value="Place" style="rounded=0;whiteSpace=wrap;html=1;" parent="1" vertex="1">
          <mxGeometry x="200" y="1120" width="120" height="60" as="geometry" />
        </mxCell>
        <mxCell id="HzMSSjzRzOOwqQ14_DTC-15" value="Product" style="rounded=0;whiteSpace=wrap;html=1;" parent="1" vertex="1">
          <mxGeometry x="360" y="1120" width="120" height="60" as="geometry" />
        </mxCell>
      </root>
    </mxGraphModel>
  </diagram>
  <diagram id="DuOIi2oyLZI8Xuy67UKY" name="Страница 3">
    <mxGraphModel dx="1660" dy="818" grid="1" gridSize="10" guides="1" tooltips="1" connect="1" arrows="1" fold="1" page="1" pageScale="1" pageWidth="827" pageHeight="1169" math="0" shadow="0">
      <root>
        <mxCell id="0" />
        <mxCell id="1" parent="0" />
        <mxCell id="2F841IOSb9LZKl2KnjlP-1" value="" style="shape=stencil(rVnJbhsxDP0aXwntyzlt/yNAnMZoGgdOuv19qRqajEj7yQP05szwhRLXR87O37093b/ud868vZ+O3/a/Dg/vTzv/aefc4eVpfzq886+d/7zzd4/H0/7r6fjj5eH89+t9k2y/vh9/tv/w+4wz5HIDOfNneVD+PfhyFn8+vKzELdlR3AZyFsnXOsg7RyZcl/dk0ihfybrr8oG8H+R9oArOE6m6QT4YsuA8mWoY5fm+BtzXdHMsgEw5AYCjMgKiwRoi5fEK0ZJDGkq3yAqQgU3ZRc5LQEWASMWMAPYyAlSKSQHAHbynoDWAOPW522QFsMCswfbXtwICFa8AIPRCoRC3AJrV8yZAJK8vjQCFklUA4LhkKZZNgEBRRKuHoZEyeaGBcxz4IXMCi0tzhqCUdv31AsgwgTKbVQBKD/jLgExlPFIy3TMXAYVTfgyNhDOuOEpjtCbOEJAPJcgUZc/YCACpl60VIHgAKBSVhgg01KXyrgAJmLVaWTUaAFipqtraAOAO1ctyPwOESwAQfJVL5TZAolQ3AbIsMwxwyA9FVj6OJZMhIIsjOQrID5WyOJKhiDRUWVs5H2BoVKo6+CoGiFiq5PAdBJPhsmAQ8zGGzHimYskjR7CKsfSV3MvtVcAYTBzABmsoowaOFos1iLLBTyKKvirZyYfOa4Ak7lBmRxItqE7KBgPGYCq1N6WrAOE4Lq44XAWAO4DB0SeOlO3MceLSKXZycKNZOUc9PpJwHOdowgDZUfgOqFaq4EsLq7sxvJkcRKxBJBD3+grucCFH89YyUOKslIlCU+dVQKRc7Ne6sVhyBk1iQ5TjlR3+F0L1iJbWm7oQl6aINKg+x63So+hQnbQZdlOvngEUG2iATXxjBlCMZgZQnKlGyCw1K2sA4AfN+5rdNjFLBmTELBV3ZUAAftDsmD2TETtm/q0aKSoDmuGzodOmGaIZGs0QakpphkYa1BzE7AGtWtqkNY6XXMpQI9WzHHvGAyvpabE1UgDQ8+gMoCbeGUDN1BOAntpnALUXmAHU5qEBQD7o3cYMoLYnE4Dez0zuoDdABfd2vWNigAfRqrdYDEA8Ue/JuCygIqA3cczXC2T4ctfH5CEAupF7qV7kE6SJUTIBLgoO2IizUYy7Ga5Olk3MisEVRJdkt+L0c1DejA03ZLicNd2hyzI3whrJ8mL566HDjDyPt3C+Mp2TL8voAjcaRtqTPYJmH0U++UkG9lTyNkE+bPqAusg7yJBM5+9LAvTad01crCdn3hpP4+DGSrUz0znoFXGRi5ifbvzsMRXnHx9fWB4Pz8/nDzTr9/KLDD86f83xn/8C);lineShape=1;fontSize=16;" vertex="1" parent="1">
          <mxGeometry x="75.58794211116583" y="445.58708011689964" width="626.6384853958871" height="7.98755814516494" as="geometry" />
        </mxCell>
        <mxCell id="2F841IOSb9LZKl2KnjlP-2" value="" style="shape=stencil(lVhJchsxDHzNXFHcl7Pj/MNVliNVFMslK9vvg8lkHBGQmsObLHeLIJYGwMk/vO+f3naTM++X8+nr7ufh+bKf/KfJucPrfnc+XPjT5B8n//ByOu++nE/fX5+Xv9+eZuT86dvpx/wLvxZeLVTqzHLm9/KNIZf/fvF5wR8Pr1d4awwZ0xAsmXqfwAcIvIMH1EQxNnhPPgJ8pNj+fqCC8IFyaPCJErInkG0dVKgGgPeUW7y1lC0kiAvYzg08OXFCoYCu4Mm2V+YYxAQJxreETAYRHFURNEsJE0TaeY57wYT2hMBuRV5igmsJiWrnhDYO0ZFFbnWUS0vIOA5MyG3qOQqodpiQWkJeY3+X0HopOzIdkwSBy8GPEIpZjbxLaJOvBApjhEwVFZAiVDapcwdB4ArBqSEJkZwZIqQ19lsJZS3arYSKdTjLbGVCRifwFRXhX0ndJBRWemVSBV7iVCtWEUBqJFVxMwFcOnBBtidc9a+bDO/Ia5tAbti6Ftg1Afl1VdJrt4LU4PanvJrBnZ1sJzMelA/Xu/p9pAA2kneSgLoJ947kFQFYFNyNzAsgBqy7uhgQgVXR1xGTWLOSJuAW6lVaQGHNg3FjRUkqkVBisCpWFQeUeazsVUUapTZ3p6RrAQWOk7UldOuTG6CuT1QOH9K+UWR4XBOzTEfGeKBUXkI6ydmt8EiIR/HsIZUXqDNoPG49Go97m8bj5qnxuDtrPG7/Ct+ZLzQeDzCMH5qQFL4zgmk8nvEYLxYePETyf1uZ6EypWeZnZwzOa/Q3ztlZFnBnkGf80KbA+FZROqsIr0JDuw5b22pcZ5niqajNt862ltY2sXEdTIP7ZpKK21loo5zq8MIcZXnhfTyMrfuewshrght7rBh8C7Ey0/BbC4fdSzjQTZUHBsq49XI2NtD42RXSHIM87+R8wnjQFkPQ3kGTQIxrV96GZ9UTgzS2J6uFCd+3cN4qe9A4pp5xcLzqh6puS4fRl70+nj/8f0Z8ORyPyyvk9f/lsyN/tTxZ+sc/);lineShape=1;fontSize=16;" vertex="1" parent="1">
          <mxGeometry x="296.5375559544043" y="136.5804225436625" width="2.9248880911914057" height="531.7711614343661" as="geometry" />
        </mxCell>
        <mxCell id="2F841IOSb9LZKl2KnjlP-3" value="" style="shape=stencil(7VjLThxBDPyavVr9bveZJP+BxBJWISxayOvv48mqh7F7phaQcuM2zLpoP6psT+/i1dPd9eN+F9zT8+n4bf/rcPN8t4ufdiEcHu72p8OzPO3i5128uj2e9l9Pxx8PN+e/H68ny+np+/Hn9B9+n3GtkU8TKrg/5zeBUv734svZ/v7woO2zV/aVcti2986RcwrgPeWIT2ANKJQaADBF7VLw1BAgUyoawBSQS56cBsRMAUTNmaLOagpUQForU8sKkB0FBPBUggZU4rINKJGCrkPJPapVQE7Uqq60nOm3AakQa5dqpQLqEBu1qAAcySFA6mWaARW6FBpVXQcpZXQAEGyWmkSVAL/nrM8ApgJOEDIbakwSrACQuiAXABS0lxiqBTDSg+XeQrTr5OvnLw5oQD+ihjZEwKDOlIK1DyhFlnhSgwr8cf30hb0D/jgr/1YpAukMLU9IhCrmKBv7TAz8kQaarD1qR3PDnWUj+Qf5SbahSj9D/bHafLKD9kJppwlRI5wiEoGZUqX2N1s6TtqlUnpQ64Bkp460xwI4J0GHYAGIpNGRHwAesCgGaoNLEcwEGUp5aPEM0hqrFZpkCdUhsmWS1CEiJYsQzQkMG7C4ZKZOab0lrwNKl+IC0FAdhHy63VXX9bQO8BSaBTCog2wTsQ4AUGlpkHk4ISPyyTBPFuCwgCy9G9wvpCdVk1aGPU8ArGMQaiQkUVnSjKbLpaBZt6WJ3sil0qm2FBA6YViGL0vUcGlqAkiiadBDhq1Y6G32C8lSQC5x/3lRBzTcJokOALQ+CyAOmm6gt74dEChrlyreVUVxTheOhfCI3rLc6hO4dA1u0dsuVRHG8K7FcNjzPhbDj8XwPy6GeeBogvH6YUuSTdJj2ZhNT1bJgqZCoapD5nn8bnVU01ykVzRQg+lLXMcwzU7QK+RLnM1UiDCGzLYMucCv/+lLXAszYemLx+YGI3k4Rmqys/Mlb1sXEsYlEXcC1JCVP+nVcGIjqIPUtWpqSAcMIK0cunZfeZPEsiW95a5K7M0ahu/CeFhIPNxHONmPEnwZIVIxPHL9wHX7Yvu16/1y3Z5tu3bwo6oNJcbToAW7f12wT/YL6YI/mSq/IV5pzt7ao3xK8w9m/sF6tXmreR0f3nH3esFeHl4uem8P9/fne+Ll7/ZiWF6dL5Xj578=);lineShape=1;fontSize=16;" vertex="1" parent="1">
          <mxGeometry x="283.72988081999483" y="113.37195730459109" width="21.09148011169691" height="66.45764356733923" as="geometry" />
        </mxCell>
        <mxCell id="2F841IOSb9LZKl2KnjlP-4" value="" style="shape=stencil(lVfJbhsxDP2auRKiNlLnNP2PAHFqo64dOO729+XU0NiiMy/IbSzzidvjoik9vG2fXjdTDG/n0/H75vfu+byd0pcpxt1huzntzvY1pccpPbwcT5tvp+PPw/Pl9+vTLDl//Tj+mm/4c8GxUCozKoa/l5NIUv8ffL3I73eHG/mYKeggz5GiAoCShBGgVPM6ICUKbbSoUAEaklCRATBfweuAHInjAMiBagMA6fctAKUINBTTMAJKoRwAQEhHH2qkBKJULQ9jWKsFuqwDJFAZEy2ZCsi0CEUHaJSBBs0Ux7DOJwDQzOkR0CJlENbW+t8LIJGkdQCH4MPUSrdyTUXJI6CSIIBSGDM3nwC6mgEyxtV0Mki1BcWHqZGCMGnr9bKU3DUO7yMqJfUqBAFS586N1w2Rgzv/F4BgJwJx8onIIBHGTh37RsvUsAbXmYxNGSRCjZ0u1VbnAgCFgvOBKQK+qhI7k8xIVBFMqXpARezLdz4wZp/cmRS7V2sF0dSHNYIoGdWa43fGJbfQ/4YaKKxmUnVREqqoM1WqzmklRRoSqWsbjSoCWJrEAxqYQSqd/bddAPRva775ziTUjjXesVUxWz8LqNJ3i2VCNDhHayAduWReBcClkqiNiROlAhqZjXYe8yBW0yBKtiq00Yda4KROxY8gG/Yo07F5p4uRBdSD7WQ6mmQbDup8MfSVbdmYbCoCH7j0+5adbJnd7wOMGiP5IlNA5KM4Nm/GzTtQdjHqS+CKuMuB7T4gBcFbnz4QL25jhfni3hkWX0kQgXwDZjjLs6+AAIdapZacOIPbm1//8WLB7HfCAKcNp95ArvIF0GBmiVt1oPl8t+gwbKKffR59LG8f17fYy26/vzzlbv/3bzc7urz70uM/);lineShape=1;fontSize=16;" vertex="1" parent="1">
          <mxGeometry x="301.0858456190417" y="121.07605962628588" width="21.470363580665662" height="46.189737082315446" as="geometry" />
        </mxCell>
        <mxCell id="2F841IOSb9LZKl2KnjlP-5" value="" style="shape=stencil(7VnLjhw3DPyauRKSKJHS2Y//MOB1dpDNrrFeJ/bfm+2xOk32dA0c5JLAt3mwWiJZIovqE7/6dP/u492ppE8vz0+/3/11fv9yf+LXp1LOj/d3z+cX+3TiNyd+9eHp+e6356fPj+8v3z++WyyXT388/bk84csFV5RSWlAlff3xC1X+/sPbi/3D+dHbS3P2SjUD+0G9OvvMNMoxgDP14QGdEtgRV2rZe1BI0ApKPQCUSj8G1EzDA2yTCrZUhcT7wG0+4iqgmdPdA8bc5HWARd2vUJlqOgbI+vcKEFKwggwq3uk64AraKHlmmFeix4CeIpUakwoANBIfpWa/AB/6oOHJZ3FL9RgweDJnBXRIjSHEPQI68GF0GuwBFmgQ1rHLgwEYbcnSpBGgIA8GCGGVRIyiZNz0iZOMw2p5kAj48YirgJxSLEtSSMGhXpbwXhvj28BOBK8rrGQGUM8NaZSx16EwGUAxoIQwCeUbZBoRwMjpTpoiADptB8zTVRT2h1GoaQQI4HfvM00bQAf87nVHDXsECKva3yFxlhnAPi3EoccluCXLa/dRskc0ECUrEuqjpJUUJM5KaeCSKjE4D7VS9k5buS1gBZZYmDpDQNmdh27kQ1KAZx9fAVbJQJSyFWsfJWMXqpXZ0hQAjQrKA7E/cEOn+ri+wCxzq/1adq7aJ9L2c/ahdC+1GdqX3X4y8Neqqq95VhBQL9lVYYtPAyk2e08J649IiqW5202+FO6HS7TPgBApFqNRp+Y4sO8S7SsowJlyi/YN2tcc7QcoXTlWX/MXP18lxp+hfVDClt+C+vLu+R3yLUc5tXQswId9fAYs7Xk24O35gvwMwmUjNI4IJHGBDu155wAqcSlWaQsQJmg8YArnhP0BlhsBigVCpqo/KkDhADTYA6zAhedXqE3TjnB1Dj7/in270mHQkGMdpnkHrIehUTDL7OubLimorZbogvVhRLmy0/vW6ZHMtE4f9L5pCbQlGy2DVDa1ImAFUyvFO60ZinHTQ1E1dtgoTXHJTio3ADBBloPMrHDYNNXIu4EiAx+WNP3UkGPKt+7mLgWARVv709wGXGHpFjUCkC79z0ynyIdf0+k8Iv/76dQ2sIvSQAeCqZaYhw6cXqq7P0GWaXjl1KZg3JCpIECa8/TmQMB7tkrd+9AUijzZH2pMDYtJ8j60G+OsThW+uStEN0htJ/RqowGcrhInhVpgWGuedWu9Ue235t9QvrlCbcsch69lIkYrpHitYPIjA7YWpeHpvehLJAWEii8zGc+/toEAGHPJ6/Z1jmdrGuC8tvztucqTi4f2HOwToLbZ9/j2ooA6XGq8EM5wvistDhhp3vQc2Yfr4ASPptlLfH5C8WzxKOPxZSFEDvaI02YfuvN6I3FkHyp2wvyR2NYyHHf+wdupG/b24e9XYR/ODw+XN2nb/+OrM/vp8tqN33wD);lineShape=1;fontSize=16;" vertex="1" parent="1">
          <mxGeometry x="619.1670293717334" y="429.37187526161074" width="138.40891415578426" height="45.182793896287876" as="geometry" />
        </mxCell>
        <mxCell id="2F841IOSb9LZKl2KnjlP-6" value="" style="shape=stencil(lVfZctswDPwavWJIArye0/Q/MhOn1tS1M457/X2hqlRNSNpM3mR5l8KxODjww9vx6fUwBPd2u16+Hn6Oz7fjwJ+GEMbz8XAdb/o08OPADy+X6+HL9fL9/Dz/fn2akNPTt8uP6YRfM69Wkjqxgvs9v0kU498Xn2f8aTzf44WKdHifyDEgOCq5IwQmJ/uEkohTT6hUCyA4Eu4InImBSZnJu44gkTwgJKHcmxT1COBDjFRjH1VPAfgg2ZqUKnHYJ6iL/2LSCDlRAiZpEEPvQ2GYOK9R75VRKhUHCJ5K73SNxIDAlA2+tjfbLlDpXfbOkUMWWQ/0AyUhvF/hkZBcK5UFX1o17eB9Xzs1kwD7F+8WfKIA8X6VABQftb8PaGWqQHSqYbZ4B/wN5Iw9gSLEV7F4yUhAxVs8EpBQzNZ+BvbEVb4E6iGSJBt/AXqLFFf5TaBLRAomnrmV3I6/2dhf3sE7k9/aFLITf18svgJ/Q+uB93hgjyeRlT0A77b8hfoPq3rMwF+tR6M3zReuX6O3CPWmg8ycL61p7+Btf1M9gxng7Rib6gXW+8fwmp0+nqXAePq8IjAMqC4nxiKdehlUJGvJhJ7giFEJsJ2rSXscquHQxu6yG0hrS9vLhG+7xrJ9pJb3bUKh2suIC9w+cmyqXwgOLhPFt7/vdjRU+CVS7pWnqQxA2bo65N4k3RbQbqDKF0OArWvaS81yAEfT1Jl7D1xrxtv4ZHudgyuj4qs3eDSKtfOkaM8HotDOxmLwaNQoviYbH2R/tbPMw1KeNqveX60LMLrrarvkFoDtVuFWy5BQQg6rQX2ZRfiBD1+E3sXrw/9b18t4Os2Xtvv/7S1NX803PH78Aw==);lineShape=1;fontSize=16;" vertex="1" parent="1">
          <mxGeometry x="702.5852471770227" y="499.43310446460396" width="50.97224913377568" height="37.314729874432714" as="geometry" />
        </mxCell>
        <mxCell id="2F841IOSb9LZKl2KnjlP-7" value="" style="shape=stencil(lVfLbhsxDPwaXwnqRUnnNP2PAHFqo64dOE4ff19uF1pblHcK3+xdjiSOhkPuJjx97F7etxvPH5fz6fv21/71stuELxvv98fd9ry/6K9NeN6Ep7fTefvtfPo8vs7/31+myOnXj9PPaYXfM64QywTy/Gd+4CiVfw++zuGH/fEm3DmqsYvP5ByIjyRmfabqASBT6TdwiUJdB0wHDh3AM0kGgNQyXABCSdYBgcm7DhACMQNAIuEeUGHS0VFMHSAKlQAApXHSACkSg3tIQt53AHEU4jpAdL2eJSnkAK1Zc8i9MiJFcHG5UOpvuijRAFAi1V5LJZEDLFXXDrAAKmWQdK2W1irEIGkFVLaAkjCgp7VmEpC0AqQXX1XegPj0dem1pEs4tEOmLBaQ0Q5ib3rKCrGk18QPAQIV99CRPGVvAR4B1MfSQ7SqzRhpZHwkZ51vkgawGc3BDQAGXqwscV9ASnRE8o7WyBSAXENfJ8NSpAKMTE9s60GLFu2gpjLk4BFL9Q6g4JrOxdIKWxxzc/ebq44oiXGLQh6fySZRmi+s0jQUNepZ00UMFQQvIrX1ro2aYZeb1DTUHBSH6nVIArX2qSKypSkjd30UUEaBeyog6Vxbx1laSoatPXtrNMXD1i7Jdrksbea639oLRQPQAQgknZhCr28JlIEdR09spg2hAOQadOrrWYoVjok6hhot6Z4esOS9bSk6dAU0iErrOMvUV2CndtpSzFzpcdOybqyjrIATCbk+ZYfXj4MrNU+4G86NjoUg6Hpa6yZbaEiDRXoKwI6GCdrBslz0ew1HE4xrY2MLZ8pIbE2K13A0CQ9dlpv01q7JhiMXTdYTuT1YEQ3bs3sYXsSEJzSSDz2gJXPfPR/7dvxvuP64fqa+7Q+H+Sv39r39rNVH8ydxeP4L);lineShape=1;fontSize=16;" vertex="1" parent="1">
          <mxGeometry x="706.3640637586236" y="492.3588106870343" width="39.08513018858821" height="63.62877490758228" as="geometry" />
        </mxCell>
        <mxCell id="2F841IOSb9LZKl2KnjlP-8" value="" style="shape=stencil(7VrJbhQxEP2auVq2y+uZ5T+QCGRESFAI299TZmRn/Nz9WrmBxG3Sqequ9dVin+TV19t3X25O3n59enz4dPPj/P7p9iSvT96f729vHs9P+uskb07y6sPD483Hx4dv9+8vf3951yjbr88P39sbfl74gpHUmLz9dXngTLR/Hry9kN+d7ydyVybyaEJm5H5+ezGOvl3cLIw1pTL6OEvjxGRh9FVm+kTpo4lgnGqy26dPJszye9/fsEmfTQT6aBzRt5gC9NmksE+v5gP7+2oS8ZfaL8WJQTx1sMs9XAaDmFr2GTS+cp4ZgklEZzUqBIUyOCKSOPSC6kAZpAswGKyJRCSJpoJZi4mRMORuk8GQjGVfqKbOZvVCdQiqNDBYnmrq1zDHdjbOEwbpEg8GTVeWnIKh4ZwpJBvC4odqCpcozR/I/cEefXZAz7JN6eucDMkU9n61hwd6Co6hv+6Z3hN0CdEIymMZ2kWUfzzYpk89iK/oSSoHNZ+APDTkMoJL6gbbpi/GFqBPzD4FcyCZyuxfsHxkI5w+eaDPLH5yd/9VArBy0BwAORn6J/c87IGhmMxcLIi+nsO1woRdsNGxoLNG5qCQRKNO1KozgwpZiEgyvDrCVLsEhu/ao8x+i5l/QW0yA0VSPzAGBdNZh3wgkutYOxhSt9t2FaxYQYozlnxBKxLoUKKxJJY0mAEtiuYTiVZl8LPS1fV2Y6+SQ0Go0hugbQYFvFnpqq9gVhLMuKr5wJS2xoJIlWKGiyZDUbPjHdsc6mqHn3AkIbQILEqz4AsdtAZ96KV9O/aMnTGj+v5k20bGzfSldsdvK4z5XHjZ0c4FItt3VNuhL5A6OlSwsDN5lj9Lb6N37AnyJNWXxFDCZrCBBQsh26vGgKNKwUKHFJjRYqD4pS4GlUPlgKdjymxTrSyWxZxg4VHc98TJMfZ/j7IQ6eiSCn5BCw/LzLI0tH6U000GhQZIBA0VlmjKgOOap+VZGbDt9zQ0FBmwi/e0BVaGPCdbS2/ihwZvARmEZaddIFI5DpSAytN6DNIn1TGTDobQMXCPAUbCtgkgGKyOKAUZDjyHjgi9ed1mWKpnE4mgkjLEhYGNU8qAs3ygnZgyuMVxNJgy9nqtnh6ItESfY45bFx6+B8uuWZeEYAVdHQczUks5ZiUNDVkYGGxoNciLSMzTtb/vWmnOUBY/0Iq4maM0+uoSrkI3bQ1o1ujjDAjHoTfJewxWkIFtYV7MUGRxxEjz7RpU+7x5tUliE19MyyZJZ0A2jwUEpjZwEZEk4HJLh8bMureIaBxdH4e2g2nBStWK9nvSq+ZogHil1gbIzVZKkeJMQUerY1gHl3DPkDlSpt6PX3WUbBGj9pjl196DjVYJO1btiNlklbEb00mMLSYKlsNqOeYtE4OnnVJbW8BIwhtQF3DTpjOMJRZta4uADEwFnQKgJ66RIt5zoblSmlXD1rRYtCrDeUUfgG11G1PaD5sMhkBLjwaGheMUy5O/4HFNjrQV09AIkAqWTtxiUek0TpT2Rg2ZPR0zdZwIHnrEA5EihkbbRBNPt4USwHzi6/yCVmrHKnydX5aum4mk0xSIpBnC5qugUzccVR0u9gTW+Xxl9X/bfrxth8D++7btfHv+b2/by3KSfbCpLtg0O89zLONmSOtcZS5IWNVc5qunZbuodY6N8xrUfu2ySUVoaQ/QlfmJgcX1pUJ+Zh1qxsZfEZwlmra0sOVtCM4YHEaq4jULjdZQgUiZYt3zochgKF3I7f5F51T/ki+4iMO5MjjWg/lFh0TPazX6obuQQC8vlB5pV35jJwwJ8aj5he5VYS+sX2R7JEF897yH9DhVtGUE3Tvj+y31gEU8dRzwLE4JTihaWGzuDi6/LInJ79YsQxe/ubNsFPi9oFX4A1vCNtjSWm+xVNoDYaASW3outdwXsfRuhsNU5+c/HnvFI3I4TeDCCB5tclUFJ1FuyIAhxt2kQI4xw4LgxVfPDsj1x/Mttw/nu7vLJbnr/+OtOH10uVEnb34D);lineShape=1;fontSize=16;" vertex="1" parent="1">
          <mxGeometry x="204.11749580038463" y="57.131210904698946" width="86.26375056703341" height="124.37677046980718" as="geometry" />
        </mxCell>
        <mxCell id="2F841IOSb9LZKl2KnjlP-9" value="" style="shape=stencil(pZ1JjhxHEkVPw23A52Hdwz0IiBIJqUWBonq4fZs1lVGZ3zJfgOgdWeW/IsIHs2+jv6t/+f3j+98+vCvp969fPv/84V+ffvj68V3967tSPv368cOXT1/tX+/q397Vv/z4+cuHn758/uPXH779/7f3PtL/9Y/P//S/8O9vuHTU4qCS/vPtB7seef/vJ3//Nv6XT7/ejc9H2jq+LRrfh47/8ydPx5cjTR0/Ko3vK4yfr8fb1zUdPxONnz2Mz6/Ht6OG95+Fxu84Hr63Hz2+P7zPOHIO89No/J+zfb9e8PfnkcP+qfC988l+SLBe89jy/gXnZx2l6vgC+3mF+cy4XutYQ8cnGL+PLOPTUWD/76M97rdlP8G/Px/nf62jwffuYz+elzVxfbO9rrzQOBp8gAH64wqsfjsTrwArPQLaUQhgM/44p6seBc6wAUTIrXL7E68A/VHKLXtJkor59usbYO5jkFgstzc+AbZucC4NINM67ejxE2Snzn4sAtgkPh612XArGUBk77Sz3BEgm2/aRNNKt9vePwHpSHD6DSAfPc4D/hxge/Px/I95JNpLNomPszQ6n4dxkz8nwKaBvmEcU77B1p5eaarMG6eWfgWYj5uvbxSqeR358Qn9YrcuPUB93v7Ec8A+0uM69M4nzsTio+Ls7Zj0Slu3RmfNadSoyBPKFWAIIN/Yw3NAEGSdxYwB5DwYINMrZd1LzeaNAEX5XVvHBKlhgJYUkOFMl1N/n4B5DHqlqrNkgAznwQDCwZqxGlqHepPVd4ACe8lYW5KPtt1KTzBaWBVAstUAYyggE2/uquNaQ6JnAGFWBij0DeMmhe4AiRZu3mT1CWDJV86NcP8EeqV141J3gEZbYx07ADbt1q36wdah0ivtm4y4A5AQqEktHtt8pNgNoCfOtjeZMEk5oh0gWrh6Uto7AJFQA/RHkmhCgA6QAbaImY1qt5ajBgCJewPMIFuJCdR6Eyp30pssGQM0UVkFdZwBpgAqshkDyCwZgChcbcoqXSkyoD4unKld4q0GULU7kJwYIDKByoAhgIVsxgBiPxjgYpbWo7g3+kMayABbSGI6Kj2hq34YGQ0OBzQFTAaIXW8ksZGY6bo1jIaimOm3ZToB7faSrwAtADa/UhNm3FE/GKA/br4xkC8ZQLwZxu4Xf4MwY7MfBj9hPu6lsfk89GCWJT4PXYWAGU0oNYa6uAywaXsPJSfztB1fAcRpYobf4ifMx4Uz03KSly5QBzNeOwnjGb5hIDM2gOgHA5AtWpd6cgyAGmiFj7bdSk/YqkUNQOehJRUzDoBXMkALr7RhWg2ww7TSSresenoy9zaA2NMGaPTR5WZu3/s1GLDD5qPt3U4P+B2A2EwLBsdkJ7cBdKULkkQD6G41/QByqUVXS0KFYjxYPtoEGTnenWmLBmKfwJs9cieMyW3XojOnoyAzpi1U2jTQoO1tSlGkd0Vh7FabAPLNongFENPSqMPFK0VyUmlah1rszpfolUzcPy6cUTjcS0HcdxbGbeiZNhqaaXvPwL0Lv9IMjpCMXjgDTJklE55Af1oQ942ZgP1abaBTJ70CqC060AYyi0dtIDbxDSDM2MQCyVb3JskTCrri3aYS4zXf2McrgFBpV2Kwl9wIe/wG06tksRtgPK6DqXrScbbVRIsaXdmwDgYQn0BlX6UBRAi8mSDPAVXpj5mCRB0MUB/3ktm/+EpVfZVukvMriUKpbNLYkRe/d03owTKAhBPc+ULr0G4+txOwUC6Z2BIxUybSUAMIq3SfFn1D1/BmGRj86sF+KP3m+XsOGLpbC1tZBigBUGhrDFXs7h8FtWuA8SiMS+ETN25G2B2AbNE+1QXsnnASM1OlhjvnaVqnhtfyZiEQ7AcDkPfHAGLH5cVbY+nC5Yni3mMyAmBzoIcojQHwxC31GefOC7dVoeSG0YEe4t8elqSFC/7WXG6y8BVA14GpwwhxoJzQUhxBKW7cezZ+PY5faNCMrAb+whQKG1/FFsAYkI0XN7ydVzjONn6Jl+UoNL6EaOLt8L0aL2SPtaeNV383bqFR1WzglCO3EUSzoavBxgv3PJOWno9vmnJRMAoymuqQzPPZVcBnDAfYeBF1CbXmOOMXb+M7vX/QHwlPsEfo9e/jfpsq5jhoanZs7jKeHJ82XiKaieczxJQS8v4Rcnb475ulL+eXkyZmVqaWkOTMELxhU2oW9egnjN/OQGbTLcns+fim7CChjnHfo44nQjS76qSECsM9jzqeLMd5ite780jzM+P5JQ+BjRcHWMZsj3my6Df5U2i/7dt2fBtPKZUz6HhOOZ0hc6Oi43Wd4uBN/pMhvpL6Nxq6mTwXTIJmGH9d+bYd3/QjyTcbr15a3M82XuT/QpN6hRyPhW7mFVI8mBqvkOFhhAkn9Ewbu6Nk5FVbQQNnzjxbVeM6zkPpCSHDI3feRE29anlgvNkAIqU9LYu+od2MqjuLg+TE6noOXLHSOoTkYpMUFA1eIZjlR5m2XqAGdtaIq3iyqXCnzpsvCFM7PSQd11Q27fSbvmEG8ZWuniBx/5rRObPWE/cPJekaQJ1kHVWyAcTX4iE6foLIvLowBL62+lrqRgfTipk2GYMoBpBvaBUTBVZ0h57JCU8BO8TXWkdfy47+U/YB76RUx73MMEsGEN3cmTwaQHyP7lEFbbKjdiuYEb+zqv/ekD/uoA/dz0brkHVreMSCpjWrN8djIrC9d1aV1TdyQgNIYHRwetEuKmYGszADSGqO2bXkzTGASO+LhI0d9LRZeqRFDSDuHzPd8AlVmcbgzLNdNaFvsPN+nwGNE7DQOPVylhDnJGt8x9BrwrywXUPMPKMw3k1zeQxAWSoGKOLQKRhUNICoLLOxKE9yNzXJZ0OObgDxcczOcikUPs2OUfndn+Vf0BO6ylYzhIin7+C8d0uIAZrhsVEpGkA+erHrYg8VlYuTf/bQVAQDLPqGENw1+k7eTQNoxVHljx4a0TYmSzHCHZJ/VsPs6j3DLHX0OBlAPB5GGyn3eQeT2wDIBKbq6cXOewNIqpqTOlrpwCoNsOmITo0374TB3b3Uz7YTGooGEPqzub5nL02h3Rz3N4DYcZtTyncIsu+OzvK91flq+5e8HwbQCsLJbGaHks+NWjSnwEPf3vLlI7YCGn/17gqgMlr79QofgTprqxp9e+YrgKQL3c3Dy5XI4REkmXZwbGw0zOzXNTwBSVzcTZtp4g71q5vZxrMnkHf7yTcs9M48maWFqWRP1mFdbSZZagd832bi5Jwn23WxWowHgtNOnh458to9P9XfLTgoML9PP939dr2YpgBA+r3Vunybh5d7I4oBBqiKuHylGgAXH12+d1q/G6ArvdDr5Zsz6BQ8oyH5bA8+o6Fyal9QphW+gUutdkiQcOPuuxiQkQGc1qkFaW6VMymrgZ9QvoPzxMCAKDT8hIluFhshs2Vt9NHaugqhMdpH2QVOvwUw0bm+Q/3xmuwLGZpxt7gg7YnNwYm9BpAMAPdt014aunCL/cxuaMkTKvsReliHwmSjhzYHhb+ha4DAA0O0vUNc36xLyr3foSZoXojKFmpRFnrjd0hNmOvKLaA9BSbTmfak4AAbbIRE99nZfm2hFqWxVVNDiU/FKry3Fi53gAs3WawfKKQUa0gButhLVWNHMzGHC0k0Y2OWjjsTqwLQMiuh1Gph8pmrj1D9hVsjlJaMU4689NFKuVi/AqgXmEtLdlYx42V77PoWn5RXKPAThJGNdOXvF7+aJ+1d+PsFcLFwSYlu58qpHVrIdE4pczUuEYWGtSgGkMKPzjVyO4Uqi4wxPI8dSdwlYdHEChZHuwhcbg2NehkFh+Rkltrg8O5Wb3xrSEMNID1nWkWf1Fq6NRqHUQwgbrJ2Ma1LI851obg3gIjKi/oB51+hfoCkhrsOJQGGW5cYQMR9LZhyZQAJ1FTOcV0j5DSy9H7rGnUCJgZfPVVAcu8HL1wPkX8ufncnsSSJVwyNGkDYfWGDw/3WkluQMNj0xlJPpxfHIb1V1uNHZ04GNlqrKdwsW1fo8pQ7+lpWDfnSDU1LJ84h5xvlUrmZFyegYH8KZ9ohwYiM15XDLCXMmV6hYxg7XG28TNLi0xBUIleurNCLaKCbZSWVGMyiVwoVexiBnEH3dM4xDT7Exm0It2rPitaYmSFTx1M/HhtfNOf7Ikcz5nxTzuVUfwz3EnmLfZ4bFC03Gy9+hszf23U/ZFRRnlMrcugyZ1dOJOYsPssJpv0cc44vcmpDTvPF+4Sc6YypEzNpQJ1btI1YpYLz6Tnlur7kfR6hOUFGO2QEkpMxOjlCizm2N90yk2gPysPxJGeakic9UUUSDzH/c4RC78I1IU11WEWyMprKN66xG00Nx8Y1P1WZR8PSSBuvNd5cw1BVo7L72HOXxMpEE9DGB/1FXM5rhMRJg1TOa5DEC4R+2hHscO4r6cldmjNduKZLa/e4LtqLwAJDoc4cXmUmJyZj/swIjVy9B+lFoVzkcVQSGQJamTP1ewg3GRelae1RLA4uaN+aoHxBj/sKgnoi8+srVGtxw0Sv0hwKwNrupVXLmQsQ3R0TqmVx4aaGU119UInwVE9CuSg3Dwk3hZtven9RIVwVNU4fuvnKRWnqUMrodYhwRL0zmliw3PSxj1C1PDDrrgdW5zSfZinayBMN0h5abnnPxYuSefmGzQ0eujYb9BaK9ISm3vLKLVV6U9la2RXXWygIZfuyhy7xlfvIGEC2d70oyg9NUC98Rm+9au+8UhcAbSHBYb8nfTMWf3RWIVA3i/tgJLfEJfNJEx5aRk+C9y8RM5Njzu6TDT1Nabe20KD9ouNo22pZeMMe2Hxtae/xNrlz0wofvVAYt9j+mdehTbUuOnfVd0d0aM5Mea4tBNp741ca6tHx1hv0SiMUTrALxQDaGnNhll4bocH0RieB9wcSUpwwiyk2kxoFU29bV7PZDQN+gvhQBytFb58bagjI0+F9jx8PkNmKF33GNLC4+MqOptLbrW9ufSZKcWYMUhtAw6/c8CR2Y5sVyclbK+YT0Li/VWhK4F3xuKOcXkDQuftUvE9gcCezon0krroTFs0Nmxctt4pyjclZ2S00NvZiajoPWRu5zsVbI2ggdzXSwqXwDQuntYYE5cmlewbI8QnUBDVkZV89IdQrTk52NyoiwtinlT56qsqaXF1r7Egk35z8hKEN1ye3eqqhc5M3FoDt7b1lQ+LJRdthEcYXZT6xx+8svNI9TGu+av+sGUNM1h0gCmXzwrXQfWah1KhR3HNxYOxIPTgnqYbS7jFQetem1SIXeSQ1Nt9k+uONvuUJFR12bo+EBtN4UVbwULrPjNdBiwO5vKSGRCz3OF30T48EixobV918fWHlUQ1a1AtNucu8djefaE/XEH7tA/1L3pY+VNeS98dNVWH3jReuqn7w9p4EKGFaK16iUEOAt3NRmgFKqHKmeJh3OwwWCi5c1gBO5zLQmjWiYZbdxTUNK5hl2IY7NCZr3Cnf+3aEm1QolO+Ny2JPU7pfIxSXNKZwTy7kGHw/YAjEto7pzB4oLwrAJ4TrlFpHglVCO0PvK0zTOkIjV74irXT1t7bOd+b0Z7N0cd9MuIWEFHsJAVw3yfmSHSHrjal0CWKmMdEtJfR3YOntdxfJR/NleyV2ruOStBJa83ROyS4hDtQzcr4Suy8UzGT0ZlRBGJP0LqGphYt7eELe4aM78qUcojSdy3Fz6EPp8QLY3gZQ/xJfa5WXWlkjYcA1h4stPaRHN56FlDsjWFRBmcPVnIMvbMrhIojR+aN7CLpO1HEefQs94OnE5RYq5rl3Tg4XZ3lvBLpur2py5axoWj65xZDvpvCGpPGqCQIE+jM579bjrKHMAu/nC3nokytfDaAl9pmv/Q1p5avwrZ45FMBXdG7mmBHHzftzkHyr8ywlNfzW4BOX1J5e3I3EL0uNNflUZhGyCi6KojUR2DPfKQs91EJmzt3UTpNeEkGZmKpL/PZoShvU6PrFbc1TPSCbL4QL1M3LgyjHIWRp8JWnQaJ6oxQKeYWyzIbfG2+DbtgOqqnivBgfbiDbja83Ur5z8ffLs+8lrq1HeHNHrhwqPi+uqH1StEqGZ3qyf4jUpnC7M1vCKdzGza2ykkZ9N6e1Bt/w5gvjYgl6xXqNZ+OJzqawvqwEknrPvb8Tzqd2KGFlH6K3m7uLB+q7K+a5pFBVza1Nk3rl/u/x9o/f3n/9+O0/P3765Zffv375/POH+9//+PnLh5++fP7j1x/OH/3+8f1vH+x//wU=);lineShape=1;fontSize=16;" vertex="1" parent="1">
          <mxGeometry x="4.1787751488764115" y="176.9293275315506" width="659.7309217275447" height="374.779714588622" as="geometry" />
        </mxCell>
        <mxCell id="2F841IOSb9LZKl2KnjlP-10" value="" style="shape=stencil(lVfbctpADP0aXjW7q70+p+l/ZCakMKWQIaSXv69czxokm0P9BrbOWpejI+2Gnz52L+/bTXAfl/Pp+/bX/vWy2/CXTQj742573l/k14afN/z0djpvv51Pn8fX8f/7y2A5/Ppx+jmc8HvExUKRB1Rwf8YngaL/9+DraH/YH2/sU6VYlX0lX+/b50QpKHsfyIf7gOKJkwZk4gYA8lp7FDw5AKjyumhAogpcqpGqBrCjnAGg2Bg4US4A0CjoLEX5QroPaI6a04Ap0cuAQEkDkiNmAIjkmwZIGkClW6KmmZSmqJYBmZoOOjPFCADC1awBhTIGVK8Awq6KghZ2a5dKowIq3Vpn/9QOmQqotHeOnC6E5MGhNIlPmn0SVgD8lso5zb7hCBC10NWUWsJi1KOVsreACtKUZ/y+ycOyzjRqM58K8ClJZWcAB3yShinVpsmB0sVAwQAy7IjoOxUmgDQpqFyMxIYbsSvJMqBRNgDuTi5nqXTxnQCTMCxXTshZLQCpa5EQeQ1A1DXOvoBcGs5bFbT0y7q0Dmw2MeDCXfvlP6nRpolzSz4AkAlRTAyY3jLlLDVwA5VArNn6qEdzoFbtJ5AMyASJM91AQiPbSVolZZFn/MZiGedpwnK8HhBs0A9GxBBDVIAHQ0gAWdN1GHMYUPQXZJAWsPUNADN5GSuZTHKzPbReyntZMj2aEgVAPqmD02mVhSYDanCzXJIJUMH2wMWOoOs3lwGZvNkT5Qlyie3KxL4vs8sAZ2MIGTa1vA4GIOoJgpbduelKe+lBELSs88XM3T6IF+1dz/mUVPKAF7NtiYkBsyU/2nsZJaDVgmWphxcBWeKrMfdoOaSmQ3V9bVrOZOo6crUPgD3DcfZ8JETCBbM+Y3nnYHXIdX7f6xe256MriXST2c49pKa0a2Bjn9H6tfJq+9heflzv0W/7w2G8ht++t/dueTTe2fn5Lw==);lineShape=1;fontSize=16;" vertex="1" parent="1">
          <mxGeometry x="472.93089974405484" y="147.93986413527102" width="8.572231741159612" height="62.80442858890831" as="geometry" />
        </mxCell>
        <mxCell id="2F841IOSb9LZKl2KnjlP-11" value="" style="shape=stencil(lVbLctswDPwaXTF8Ezyn6X9kJk6tqWtnHKePvy9UlYoASzvtTZaxAsDFLjjEh7fj0+thCO7tdr18PfwYn2/HIX4aQhjPx8N1vMnTEB+H+PByuR6+XC/v5+f59+vTFDk9fbt8n77wc8a1RjFOqOB+zW+8o9z+vPk8A07jeQ1wxFkBQqBa9wHs+98dECuVuA+ogUpSgOwpl31AycReAUoiD3ooUpLOUAWQ9wG5USsKwI0qAjAFVoAWyYEecrRNt0LO7wNSoRw0QHKCpqdT1zwI9wWUFLgXsAI0kMFzp2kFCIBpGbVoMlRKoCRhycQnYt6Pd33QlviF+Z34oL/PTBF0HKhpDjiTB/UzJa0dDpQcOKBCwQAcBIRMSZNcReBAnVEKvgMkNHfJGoaU9HcStyfbU2PbdAak5XqXIVNEgEZsaGDoMALwRp1LkdsAOdamAZkcGIwkGYw6RX7glJLrfrLSTgSA6O1oeOfIodnwvYK1AaDpC8RGz4xtkpqzp8RglnwX+xIvGQFvS38rF87g+/8bn2x8lUMGdiH+lfSklsXRtgGSX6st1T6KeywbD44RrrYUrAGIKyMOsnik1kKhguJl22vSEhU0E4W8XmyLaW7vZmen1EN7keXfNAdiR4AzodTUL1MCvl8r1WbjgWg49qX6EZ8AwzKSzvabgAbkHmGWrGgG1CO+4/T5JKiBaWXrekpfWjsauFcZJGzzxols6B+uqPLwccF9GU+n+X68/t9eiOXVfJmOj78B);lineShape=1;fontSize=16;" vertex="1" parent="1">
          <mxGeometry x="471.35096057074725" y="222.797676989421" width="8.865101367786338" height="25.607299394969232" as="geometry" />
        </mxCell>
        <mxCell id="2F841IOSb9LZKl2KnjlP-12" value="" style="shape=stencil(lVbLctswDPwaXXdI8AWe0/Q/MhOn1tS1M47bJn9fuBq3BqRC1Y2msCawWDyG9PC2f3rdDRTeLufT193P8fmyH9KngWg87nfn8SKnIT0O6eHldN59OZ++H5+n369PV8vr6dvpx/Uf3idcJ+R0RVH4mG4YiX5ffJ7sD+NR2ydtTwExOoCMwgqQMqg6gArqCpA7AjuABiYFqARODqCDtEstu4AYAkJQiC5RZ9enpJ/o6RbWIoA72LxQXV4bI1QNkMw5gJqQmgZ01PJvQG42EXc8LCJSRO72Cc+n2FC1moS46oijIZqgC8jLHKKJmVzxBRuy5CU0hyNULT0u6E6aY0LTaWZJiyMkqijGIyHZoTRHdONSQHJcKowYtgBamrUM3yWuNxHcB+0oT5JqqmeFVpFZMy/4eZNaYSM8XxjymfMW5bE0SiNVkbbjUmUU0wH84imEurE+K2q0T3gtQOqnG5r8JhOlLZoO4Lcxmnnk98nFRuykYWvjDmi6elZGAyFqpa7MnmSFujLcCrL2Z2V6/tHYf47nhqLt/fHPdkpVXw6z7SLfLpbtGaSrjNCcaIWerv2JN76W2c/ouigDssN+luR3Y+8VWCmItMG+FoSywR8RY4wb4pXG3OoGPnkmBz9fPYJmevC3x63b5oq9HP6uti/j4TBtxvff7SosV9ManR5/AQ==);lineShape=1;fontSize=16;" vertex="1" parent="1">
          <mxGeometry x="470.38577674691305" y="258.79770133832017" width="5.228446506173896" height="26.467355980593766" as="geometry" />
        </mxCell>
        <mxCell id="2F841IOSb9LZKl2KnjlP-13" value="" style="shape=stencil(nVbZctswDPwave6ABM/nNP2PzMSpNXHsjOPm+PtC1cgNGAU2+0bLWJyLJQe+ednePW8GTy+n4+Fx8zben7YD/xi8H/fbzXE8yWng24FvHg7Hza/j4ff+fv79fDdZTqenw+vk4X3G1QDiCeXpY/7iPEL6++XnDNiNew0IUQF8XVysAxJKVYBIcGQAxF9WgBQXF6sARwQihSgR2Soig4sCVAL77wGlougI0gc2csoFlDQgIxopJQbrqqUP0WhTyPC6r5/6sIpgh1DbEOSMxmYkTQ4ZZjJmneGaohnOCgCnay4FxfBPbcklwBtjC0he2eeKXIx8GFmPOUdUY2o+IeqMMi81rWfkUJuU3BJzFRDLsixXAiSBwD0plQR2PUXX2G7PhbYKzbKOMM3N0owzDa4kRvUo4QvzrIX24IaqNrVTWbbxyuWJHqlzPyUD14awJED2pzb7aYuME+VtFMCWMf8lI1rI8s2C9glxv31T8IWr4Sw/V949EbHrcpNF0QJ24fYUzdb+q2nuHEirhU1SEWzS/gNcMMYbUDUfPJzhn89sWewJ2dLf0OqpvQExtlJk28v0U2tv5SPCRq6jXlGJmjr6KSrV9NOel8hW7uHD/7zWLgHk8O9x+DDudvPb8vP/7WNSPs0PUb79Aw==);lineShape=1;fontSize=16;" vertex="1" parent="1">
          <mxGeometry x="470.5254065702443" y="303.8368972805024" width="4.949186859511428" height="17.357535520926376" as="geometry" />
        </mxCell>
        <mxCell id="2F841IOSb9LZKl2KnjlP-14" value="" style="shape=stencil(lZZNctswDIVPoy2GBAiSWKfpPTITp/bUtTOO2ya3L1RVikg5b5qd/j4ReHgAOcjdy/7heTdweLlezt93vw+P1/0gXwbmw2m/uxyufjXI/SB3T+fL7tvl/PP0ON0/P4xfjlc/zr/GP7xOXCnEaaQ4vE1PYqQsf598nYDj4bQCqhBrA0ikkj8GzP9XGkATMVghhkAhNERVihUsUSnkFjCqDGMqLWCJQgRZO1BboJAAIBvFViYzEpCDKnGb9EqHm0SKJNYvEQHA/rrLOs9p3a6EUelW8OobALyyba1rJUMryFzYBUhQ15gpcwMUg/bj1Bu8KFVgP9ENwGSoDpVSK2vxygAgM6n0QASyesRW+pAUyFrL7LVV0gKSNiXVXtaYAGDzlFgKJ3NlPgI49tZAlbbFCIv5mAqQ1YdE6louk4AcipC2svogqQp61GYjrDrOgPmSW632wL81b5uP+0r7nEFJsxuh7QfXTUFIUSm39rZACYTkLRpawIWunwbQ+O53FM2UQN0yhVZUcasA6222k3FMAU3DZhJHCqA9edMKc4C3bdfvDN6awHQup7bhuL5Afo6zGEv48P8SKLbhB9iXYnNx3r+H21SlErvvUXV1M7v8AIF22tS3jFACo85nbeBO/wriL5uNuZKiYf3ZE9V/AH7xfoB7OhyP0/lv/b4/8Pmj6bAo938A);lineShape=1;fontSize=16;" vertex="1" parent="1">
          <mxGeometry x="470.9011572313766" y="347.89116381068266" width="5.434507071774533" height="16.327031272709064" as="geometry" />
        </mxCell>
        <mxCell id="2F841IOSb9LZKl2KnjlP-15" value="" style="shape=stencil(lVbRchshDPyae90BBAKe0/Q/MhOnvqlrZxy3Tf6+ut7QWIytK28Yaw/tSlqY6OFt//S6m4J7u5xP33e/5+fLfqIvUwjzcb87zxdZTfQ40cPL6bz7dj79PD6vv1+flshl9eP0a/nC+4qrjJoXVHAf647PSO7vztcVcJiP14AC8gpAFbneB3jn4JxCFI/AxhEZVDQgm4BSUfQJNYDDfUAucKwBbJJgAmmZagXF+4AoGVet66cONxHkETVCpGZL2AwmDUhIhkwZviPtUA0OHl5zLglkMHA95VwRyNCo1ehfPLXC386HkHWZWZrRIBwYSWfE0ZQ0elSdEgfkdB+QCrwbAQjFSCMpFe7nbYO0NEE3PYusxgnSyVmfsNTN6Avpy6I5bDSGTGOJI51XQqN43drZmM/STOtqeLKRUgpN9f+eTwZrmTYsQOandvNpm4x38J0DhHbm7RP6jBafNJpv1IhH432v6cbVQHBaoI27JyLqfMQRgmEYBbGrWJul2+lHlKTiE4olv8yVdouAatGVeP19D2fcUjG2/mrxdoemBOaBeOY+3s4nS3wZ4Cuu0F04tp7V93Zt10s8gYf6Yfyxsw2Qxefb6mU+HNan2fX//VtMttZ3HD3+AQ==);lineShape=1;fontSize=16;" vertex="1" parent="1">
          <mxGeometry x="471.8218551395912" y="385.96890417240706" width="4.3562897208175855" height="11.608677870021893" as="geometry" />
        </mxCell>
        <mxCell id="2F841IOSb9LZKl2KnjlP-16" value="" style="shape=stencil(lVbLctswDPwaXXdIgODjnKT/4Zk4taaOnXHcNvn7UtVwLNIWbN4oCkvisVhw4KfP3eZjO5D5PJ+Ov7Z/x9fzbuDngWg87Lan8ZxXA78M/PR2PG1/no6/D6/z98dmspxW78c/0wlfMy45JD+hyHzPO1aQ7P+dHzNgPx6WAA9TA1hAXgFERKkAko8w6wBrTPlfEJFACiIFcKwBATGtA2JCrG9IhKQAQmyjznlIsg7wDA41IBUnbwJcAKW6EJc83ESwhasROdVBqYQN8FwDBEGLGrYJ2oIVewtbxxxzpXnd3rQhx7wTlBzBU2UfHILCVcsIdZl9QnLrAPKQ2iPv4ZQyO4tUu+Szk4pLEmFNDyAwHPe4lHPOtifoTIKme6a0kgJIJevLuincniSgjmEihuYSIboe5mWB4IaqOrV9hDQKoDePEHxnf/pS2KUEKPTO/ZOa/tRFxhrYRgGyjCmFoNajOzrZK8S99lkwukYDFyI/OHuksOzB4ZZbp/bHEoySz+sCRDhNga8uELVxsuK5mtakdia7dkyZok+35ctBYmOv5V8EjjrsvRT+LvxRBkIQiOuINzK878jnNPebBlDrla7Ov0OI/ufUfUBeXF5vb+N+Pz/+lv/b117eml+K/PIP);lineShape=1;fontSize=16;" vertex="1" parent="1">
          <mxGeometry x="471.6542224268869" y="415.9059754984519" width="4.691555146226165" height="13.160008769867773" as="geometry" />
        </mxCell>
        <mxCell id="2F841IOSb9LZKl2KnjlP-17" value="" style="shape=stencil(lVZBctswDHyNrjskQBLkOU3/kZk4taaunXHcNvl9qWqUmEgEmTdZxoq74GLJge9e9g/Pu4Hcy+V8+rn7Oz5e9gN/G4jG4353Hi/1aeD7ge+eTufdj/Pp9/Fx/v38MFVOT79Of6YvvM64wshuQpF7m994Qsz/33yfAYfxeA0ISC2ABOwNgMBxAwgR3gIUuNwAEsHzOsA7B9dyyhExmpy4XaI4eFkH5KLbVPtgqZYMl1qAIBoiEoOlBRSEsg4IAirtzn304UsE++WD70tkFGMJL0jt1pVkmkPglWiGM7rkl6a/71tGSuv1TkvObAqoXqWmXmpPDf6eIe02S1zs/iWAaj9aRkIQw0jBoyhKHmRQihne9QCEEbiHUk6Lk69FWwMa9fRstLU6WdoVNvat+jK3GiZjGBoKIYdPziNDNIGVVW1rp4yoEsAenkhInfOZlrbfGAF1foqaTztkfE05lQB2jNEnRnZO9gZxf72ano2jgVDagNk4eyJC1+GWQF2npyCokDfl+jrqSu9iqrXAVvUB3qBT9fq2vrbT4MNB83cQo/0hQEjVWxMQ4xJtt9WnuNj9Nj4SkHOH3poSUjr6WVNK1NXF3K8aW4q/7Yf+29o2oD58XA6fxsNhvlte/68vk/XVfBHl+38=);lineShape=1;fontSize=16;" vertex="1" parent="1">
          <mxGeometry x="472.49874953940844" y="435.82489293959225" width="5.0025009211831275" height="17.289963372600823" as="geometry" />
        </mxCell>
        <mxCell id="2F841IOSb9LZKl2KnjlP-18" value="" style="shape=stencil(lVfZbttADPwavxLkXtx9TtP/CBCnNurGgeP0+PtSNVbW0tYUeZNljpbHDMndxIf33dPbdhP4/Xw6ft/+2j+fd5v4ZRPC/nW3Pe3P9rSJj5v48HI8bb+djh+vz5ffb0+T5fT04/hz+sLvC6410jihAv+5vCnE7d+Lrxf7w/51aV+ojvYSKWYAiKRhBDR8AhOnARAS1boOqJlCGQBRKOk6QBuJjoBKWgBASEeXUqGS1gElUh1dyolyWAfkTNmVIVCK64CkVBygUQV1SExpdEkLZZDWGCm1AVBDT8NdQFCSsdK1EjMACMl4QrMTQAwiPuhWqYFKN5/Vie7gAPUOCTMMIfk6TwegkEmbD6CCAG4zZHWXdXum4AIuXU0r9iyjfaIIaMeUs69YAcoRqjzaCwXgf7wpMHdS3dcN1VGY1UoOvl8psLdPID9yoxoDNOCQmGzZR9CAR9Y+fYoCBdAfZe4kMyBil5IXcsuwe5lL6lxSCkiX5vFYBqN1ATKwtIYb3WTgklKr3r6B5mUBBm9fAU9jZ8HCPqAAOusXATPQMfeBtNBlBkWeu85Cl4hF3Cmz4AT2P7r8CNRx6G12wWo0nj5rb4RoTmcZNlJRYjdsrLMARliJXYqm+Qdciuy3BOW+K90HKMWRRCWRoJGcfffNhRSxOlAdg042PgCNCncHZoAQA5dK6TSbVyOTBiCeBspjlmyBRB1Y1fcKIy8aOTX1dfE6lOEuVbUTYY4BH6A+ZtyA6zyyZ4co4oVWRjEzFVBlk6LbWhjOTJM6q7NHO4u1kpK8PdC+tSrx9gl9X/28Ydirr7Pimk+kAmvNaVQB3hqnUTF+P/atYaUX3XTfhLfMz96h/mtvD9cL28v+cLjc95b/+wuevbpcDuPjXw==);lineShape=1;fontSize=16;" vertex="1" parent="1">
          <mxGeometry x="461.2040581105198" y="477.0694394184736" width="29.727779858736085" height="40.95778134337161" as="geometry" />
        </mxCell>
        <mxCell id="2F841IOSb9LZKl2KnjlP-19" value="" style="shape=stencil(lVfLctswDPwaXTEEn+A5Tf8jM3FqTV0747ivvy9UDR0RkjaTm0xzCWABLMghPLwdn14Pg3dvt+vl++H3+Hw7DuHL4P14Ph6u402/hvA4hIeXy/Xw7Xr5eX6ef78+TTunrx+XX9MJf2YcC0mZUN79nVcClfp/4eu8/zSeF/u9p9TvZ6Yi+4DAJNIBJgsZAISc7z1icsBCjFRzD6jk3T4gaQy1A8RCAlzKjoLrACk1m9sAIe4BOZAAWkui0LtUmLzfB4iyHnpAIRf3AbVQ7AHVQZeqkmgAniLvA9g5cn3UNRInaCKnHqC8BgCQRsodUCghC4nEWJC2sg3wJNwDKhVQTFJt5hY8bCM0xrIygXLtqTobREUWHCW2NGWQulLJmVxnGEMRygYQW7nsWQh9k07VBLpaC5xNqh1VkDlRWYkdQFODlElyO28BYMCSOhDZAhBLVV1aWYgFAPKKVrUJhEYLwQRduQn6XssZvVcnE7JQm0osejQgoZFVB32gTNlKmR4Bgw52pKiTqJaUxJQsAOm3qMfVAgTVUmgDZAFA/aDl7dkGjabcpwE5WjXWIyoo71RsP+hUKqDjkrO1pHMPTYjomwN3gIOAEEn60tDZzSBxXhuoV40YKIIYWNNkLg8JDl4OjfX7faa0HtxWPqvFXqsRGFDN6PdzbBeizf2OfK8AWLlXM1ophqeH3pvQRvY2Oy0792ApAW70394ZpoRuejZULUAQara3NqUKSKNYkcBjnJ29WjiYp3XhKLdof7J3SHxf49zIeCczo/2yKmTKgJ7PvhQ+3q8f78+Sl/F0ml81y//tM0aX5idQePwH);lineShape=1;fontSize=16;" vertex="1" parent="1">
          <mxGeometry x="460.0291095749026" y="492.03993716306377" width="20.62360902979708" height="40.02826553824707" as="geometry" />
        </mxCell>
        <mxCell id="2F841IOSb9LZKl2KnjlP-20" value="" style="shape=stencil(lVfZctswDPwav2IIgudzmv5HZuLUnrpxxnF6/H3haqgIiLTTvMkWl8Sx2KV2cvd6eHjZ72J4vV7O3/e/jo/Xw06+7GI8Ph/2l+NVn3Zyv5O7p/Nl/+1yfnt+nH6/PNxW3p5+nH/edvg94bhSiTdUDH+mf2KmkP/983UCnI7PC4C+7skAJFIFAGnE3QBSody2AalSFQPInXrZBuhrZgOogbpsAypTKAZQMkkCgEix2Rw6NRCSntCrr1JjkEMlzhYglDsARMoOkCiDkLSsrfsTUJWSUHE5MFXUuEBiGxcbSYTUiLZxUUNCgErZko87BdA4PUFs0pwGHbdycElro1HOup2NqOAuNEp2vXatgjaL5/Z84BaPXPyZIsi3MBVLo0od8LQkrxfMY1zXAYWiDYgLCdALBSTHIh5brANUsGyPtQchAEAksdMsgQKgXW5jFBfTjEYnJ981Hc4EyqpykqIHoNFJeaS4CKmAsiYe+81V6lBgdHSqFUmlUgLU1uEsNqSowwRmRwHOSjhTBZ2WPl4vyBdRlVR0LUAFBEle8RFpmUFAn11fhZKdtgCZ2hoVZ4WwQL1SsMxWf0fy1WcbW2g8AxpxCJ54KoEZ9ECPEAu4+TVIuhfv/zUNSViv0nw9GACtWwJZ10bNzoIWLiPVk2F8c10D7lwOHtEzFTQ9zRtJK1Ay1Fsz+zIha1CuORVT8U8AoMPlzPNdptZzILF9SPMO6wdQdSrZxw6r68Owynl9GdesjfVeI1VU8Xp3tVV3BPGH8XYhqQxaxsNaF0YF9c5Pv5p/Q6QbF/HFdQqZyAfKxQgpxx8uRwpAlGPxd38FZJCBGkAuPoWEKPTZ75f/AOjD++fS0/F0mr62lu/955X+NX2ayf1f);lineShape=1;fontSize=16;" vertex="1" parent="1">
          <mxGeometry x="484.7842416178664" y="525.323528840564" width="21.113914692526123" height="20.099521777387963" as="geometry" />
        </mxCell>
        <mxCell id="2F841IOSb9LZKl2KnjlP-21" value="" style="shape=stencil(rVbbUgIxDP2afc20TZu2z17+gxlRdkRwEG9/b9a1K93CEWZ8W8pJk5zkJO346mW1eF52zrzsd9vH5Xt/t191fN05129Wy12/16+Obzq+ut/ulg+77evmbvz9vBiQw9fT9m244WO0s0LOD1bOfI4nnpz5Prgd8et+c4BnxbsK7yjn0/jkyMYKb8iA+1OkFGf3izuNz+o+VXhrYAJZKIfagaXsgUEmrj0oB8KnDayZUiwWwVG0wEWiKJWBJArIIFCsY1KeOQIDO09CiUsg6yRkbG2QKIGsk5k3khKHko6epK60ZvUT5FEDyZRynbQQg1KLkK/rEJk8CEk8hbo3QiKDQmoMvDbTRSE5oQAKp0nn2sAyCRDcQGtdaQ8FNNStTkEPkKCbxrBF4Wd2XiQrl7S2jSRIn4142FIANTiiTx+JkdxyEdekTyYGJLVDJmojIZZ0jNUeknY7CKmdkznCkNpBfMDDP1m0y0GDMiCLdvto+ROqnY65mQdPHhCbyqie8KZI9ig+FBKnOug+BBPAzbs1qj6A3EzZNVMnTRScwM9XSaAA75+3tvID4m/iYS5yOi9fx2UBn8enVX2jcVS0PtWLPKCn7QelB+3mC587f+P14/dtdd+v1+PT7PD/+VtMj8Z3HN98AQ==);lineShape=1;fontSize=16;" vertex="1" parent="1">
          <mxGeometry x="299.93124178298535" y="177.72497050870027" width="12.742364556618213" height="4.550058982599467" as="geometry" />
        </mxCell>
        <mxCell id="2F841IOSb9LZKl2KnjlP-22" value="" style="shape=stencil(rVbbbtswDP0avxKiqOtz2/1HgaaLsSwp0qyXvx8NQ15k1mct0DdHOZTIQ/KQg9w87++fdoN3z5fz6dfudXy47Ae5Hbwfj/vdebzo1yB3g9w8ns67n+fTn+PD/PvpfkJOX79PL9MNb7NdoVQnI+/e54NEcT74McMP4/EKzpWYO3ykGrfx4sn1eKHkt/EhUc0dnqnyNj4J5dThHZW0jS+Vqqzwzm3jqxDHDu+h/zWR6+9nRx49UMiX/gGNOACDSqn3SBIlASlzS4hLzjxlQKo+Ib1BKhSRQW6kNIPiSTIwiMQ9TdVTQVF74t4lJa6AqEtp9y0GFQZdIuXVC5GkAANZ01pS4+1jA17XRhYKwKWsxdo3ZyzkgEvWIGgxfcmlqf9B4mzQLE1BPklrgA005a0vb+0fcL8tDCb+UuVlYiAYtrRZT3B/rppHmCLIwQf9GTIJ7s+VBKgMCiLJiEzWQkIsGRlT4SzIJaOTShxyyQrxFQ/fZGGHgzLHIHd2+ihzDkRhx5syh0TDzs8ayIEBauZzxZqxjO8rYWVwfzDKXSgAilSm+0pSpQ9oYWj/LpWnL4J+c61XltKOsI7sbIvkwVywvRYog05wbfAt3az+o25ex6sLkmA+e7zKCxq1Jl+s6gL4NPWQm75+rtzwOvhfuH782zwfx8NhXlyv/19vqno0b7ly9xc=);lineShape=1;fontSize=16;" vertex="1" parent="1">
          <mxGeometry x="326.8078372870152" y="175.45640161093445" width="25.232179123254355" height="5.087196778131101" as="geometry" />
        </mxCell>
        <mxCell id="2F841IOSb9LZKl2KnjlP-23" value="" style="shape=stencil(lVbLctswDPwaXTEkQRLgOU3/IzNxak1dO+M4bfP3AauRa5ARLN1oeiGAi8VjwIe3/dPrbgju7XI+/dz9GZ8v+wG/DSGMx/3uPF7kNODjgA8vp/Pux/n0fnyefr8+VWQ9/Tr9rl/4O9l5B65Uq+A+ppsMif9dfJ/wh/F4gw8eQlb4BFSW8UgQUeERMi7jEwJ6hffAaRlPDnJUeAeJlvHM7feFALeMLwFcUvgAORj4BKj5FIaD5YBn/1cHHko0DAok7QGzSal3rnWRApA3XfhGFAzJMiAIOsscAI00lAio0yZEs/VqBxy0AQMbr2YC13go5qMZ28zVXBqlwJJYLQ3OgEaqiaDo2iGEaIREGUh7SKIWI6TeIIqYNoVU69+qn+7RXgraaAA9rdEsoD5v4tH4fhWGlp4Hf0d5+gEEPm+Rtqe55awsHvSQjBx8UZ+R5i61sgXkK8srmwzJjcVS18a4AFshha7cyAypNmId0g0PK1v3PYt+OAhzcdP0Eea8MX768Vay2fj6+SmCDAax/YAu0jSMAhJ1Ng6CKfA0x3vNNEM09I1t/UirN+UNpBmiOEf4Jd512k6mkPrhluaKXYePEWhLPCjxb3lvZdiIp+NT+ovFZ5cvL+3F2pBaPZA5aEVvXvNjL4T3F0g5/N8+X8bDYVpeb/9vt1W5mjZdfPwE);lineShape=1;fontSize=16;" vertex="1" parent="1">
          <mxGeometry x="363.78962821330583" y="175.4358109097102" width="21.896363864528894" height="5.1283781805796025" as="geometry" />
        </mxCell>
        <mxCell id="2F841IOSb9LZKl2KnjlP-24" value="" style="shape=stencil(rVZdb9swDPw1fiUkUaLE5677HwWaLsGypEizrf33k2bYCWX7igF78wdPEnnHEwd+eNs/ve6G4N6ul/P33e/D83U/8JchhMNpv7scrvVp4MeBH17Ol923y/nn6Xl8f31qke3px/lXW+F9xGWK3EDBfYwfAlPMf798HeOPh9NdvC+UsgU4EtkGsKesBuAjMdghCmVvAIXEbcdLoFBMPFMAB8qZvD2Qo1K243X+fYt34DzKfcL1gArihaLr8lUUX3rKvE4rrAOUxFLGgWIAHLs5wwnRSMFbsN1CHOUIAJmKGEBmckAVmkiCrVLAWYeetpIpp21AUVJb1zJrfR2QyVmiS8Q7RJJkk65lBUTUFLsqSSIGSRdPansneRIgpgawTHMm/uRIsTcMJI2WtCXO134A0mhltVWK5DFvpe/ngJS0yMCTAxlX5SUrJIEcNGl3/TmvsNk8luXqysiR1vpz5nHTAmyNkkwuuGkylgRRCoCF5mI266zYMrgvU6lLAN+uPqydAxQq/j8C6s3A2gMiAAhPzn4HQJdhzFNNJkBVowM78MLFNGJtaJ+Dzja13j7TZTmr1eH7TXqrv5n/es6U7AZVKgkoKZBa5amfBoL1jBcXQyLP2/FuYcJ1IAAVdeQtZVKIgX8tejMpeeAvru/+VFcA6/vJDe96X2A92fYZR3j7L/qySiSD+qTFQJjIofnrHyfOz+Prw228fTkcj+N0fP+/H4frp3GU5sc/);lineShape=1;fontSize=16;" vertex="1" parent="1">
          <mxGeometry x="402.80011503193055" y="174.4476903898926" width="28.037745955070477" height="5.754288150316597" as="geometry" />
        </mxCell>
        <mxCell id="2F841IOSb9LZKl2KnjlP-25" value="" style="shape=stencil(rVbRbtswDPwavxKSKInUc9f+R4Gmi7E0KdJ0a/++dA1nkTRfG2BvsnyUyCOP1MA3L9v7580Q3MvpePi1+TM+nLYD/xhCGPfbzXE82Wrg24FvHg/Hzc/j4XX/MH8/30/IafV0+D2d8DbbeUeqk1Vw7/OOUIifG3czfjfuL/AhkC8VPhMDPAsVqfCRvKzjU6CQKnwgduv4nCnlCu9IwjpeLTzX4B04v3gKpfEng/NLpFL7YwwHdIGQ+voCTwUwWgqlmiHOlHndwLtziIuFsSweXuFrn7JSQga5zbJa2kCaC7dRl0AKotZCpY66KCmIWlN3Q4FBqycNtUEi1nUD0eX3OegMa1XMpZolYYrAJYltqpOSQy51BtGK6QuX6hhMzwkkbgq61oNnyuUaWiMU0JS3Gu8WBa4WRiM42GD6yhPy+ZrS9kIZ67MRD3tKIAf/0GcUYqzPJs2Zl7R8s8lYHh1iKbZyM54VudT1SbsTudQ34gse/pNFPxyMuQD0008fi0LADf14s6aB2lI/P60gM6i/fkBbpxRgoBSamK38gOASSe2Q8azgfHO3LiVr9Q5Uhl9OO5dehIJ2yzA713aCAu2Hm+HTFfgY4eTp/OEIM9zFOzEM+On4tP5SAD9dvryVFJqcbT0oRSCBax+EX+Nt8ff1+TjudvPj9fJ/+1q1rfmly7cf);lineShape=1;fontSize=16;" vertex="1" parent="1">
          <mxGeometry x="442.7869231693858" y="173.39320688290434" width="20.336256709802" height="5.213586234191325" as="geometry" />
        </mxCell>
        <mxCell id="2F841IOSb9LZKl2KnjlP-26" value="" style="shape=stencil(fZbdcgIhDIWfZm8zQAg/17Z9j85U606tdqz9e/tmZ0c0uJ47xP0I5JwEBl59bp8/1kNwn6fj4W39M76ctgM/DCGM++36OJ50NPDjwKvN4bh+PR6+9i/z74/n6ctp9H74nlb4nbmSKZeJCu5vngmZ6jzzNAO7cX8FVKEsBuBKrgKg9oAE8gkCbLeUhEoEQKSUDZDLeWYRKIl8MEDRmHwfyBrBG6Amyu4+kDxxMoB3jhwgYu7TVAsVkFcWCs4CTBEoF4RctKeOxHIf8IXYpikHikAIf+MNUW94AGSSaoAoFIE3AlOyeWU+p2E5S9yfQZcQILVuQOwZdJNoS9Ls3wA5u2XZTIHECqeJ9kDpSaauRiNVcAY1QhdBzeLBli5WazpkSsBLV25uRaqWRyFawTQzRRIQYirJzq5atkBqLfouwqUxLBepthWb10vrWZY6UOAeyKCCtDV625mm9gmUC4Wc3VLJMMIE1BsA2FW9JraVlQB7n3c9oMKhCLEvIM1zBPZ25/umNQ1tVEC2G+fFCC8g398O2hNQuQlVu752DBfA+q0ptnqO5JFmeuIuo9DY7KjY71UxdJV4EntifPWorW++R/dC4t7V3DlIB5cHx2bc7eb3yvX//QNFp+bHDT/+Aw==);lineShape=1;fontSize=16;" vertex="1" parent="1">
          <mxGeometry x="464.8679608424759" y="173.87531245851915" width="4.672539772115215" height="4.665236216357812" as="geometry" />
        </mxCell>
        <mxCell id="2F841IOSb9LZKl2KnjlP-27" value="" style="shape=stencil(lVfbcloxDPwaXjW2ZVv2c5r+R2ZCClMaMiS9/X11ythBOrBt3uDAHlnS7kre8N3r7uFlu0nh9e10/Lr9uX9822340yal/fNue9q/6acN32/47ul42n45Hb8/P56/vzws/1w+fTv+WN7w64yTSDEsqBR+n59wosJ/n3w+Aw775wtAEWrRAhrFfhuQA4kYQO5UGwAwxWYAtRPLbUCslNkCEjGIECPVbI+UxpOrAC6+SppVBoAsxMUAYqcAqiSV2B5pyQpEaEzdljUKCQB07YMta4rEoNO9UrA5pEoNATotv11Sg2GnFeByyEpHlEPzEXKDVep5vG8ASoY5tObJV5StEQACdRthIR8ACFMKHlDBkWohsX2ogQpIWk/M3eZQKVUAyF6iJVBCEaa+Zh94KOQWINsIKqmKAIWC1XRq2Jc6iU06Jdi4OmsyBdTGIW81zvVBJVoKoEakbI+kEg1I043qyjU6qJLSu1guJaV3ggLKTqKREvClGAIFNyAapKuKOjhRq5EgF1B+21YrWxqoqzqZ88qivoBEzZSdgnQCoFYX75WqUUH2XTz7/gHQgeM0qkdioNEURhFn0nMCXJ9ZI8PZN8EmQNHO9T6ocv31mZKt6STK9ddXf36lagG00J4GS9WiTQMn0gjV8kgCnOpqcsWmsAgQ5PBuQVOfAWe9Eo8SJYCmrXxVpYCsPioHLI20Lx21Lfm2JUyjslpMFmYBHok6kCNehWLTCRrcBFWBg6JW8RFkLqXXxVbHZjQbrVUChqFi6OwjVGSTTG0lZ2T1ChBnqx3rv4yJPPsQhm9eT1oBlktt7HO3Bqg3eugX7wY3DzQC3pq3kvz/0Z60UifD8yvv/NwhQTwVv94KHCLSVxu60hRITXndbEEXluB9wV8a5IO757LSozE1d9kLE0bq1yJlF6HBDV274LumNEVt/ugF9D8A+uH9vvu0PxzO1+XL3/39WB+d79Z8/wc=);lineShape=1;fontSize=16;" vertex="1" parent="1">
          <mxGeometry x="470.344406636088" y="173.53857551377246" width="13.306244220448207" height="13.755072357753761" as="geometry" />
        </mxCell>
        <mxCell id="2F841IOSb9LZKl2KnjlP-28" value="" style="shape=stencil(7VnLchs5DPwaXVF8Ezxnk/9IVZy1Ko6dcpzs5u/TXBXHIjjTKl/2lJsssU2AQDdA8BTffb//+O3uFNz3l+enL3f/nD+93J/iX6cQzo/3d8/nF3w6xfen+O7z0/Pd389PPx4/Xf7+9rGv7J++Pv3s/+HfC84Hia2jgvt1+SZI9f998eGy/uH8OK9PaVpfJGW6vuq03nvJbIMkwc+AKtURQJZcZw+8eAIIzu4QqjhiEn72sw/RSwzHgFgWQJTSjgGpSJx9iEkKMSnD4mABzKRSxiFuAEQmHQNqEhdngBOnBNAkmUwqI7d2ARqkzT4g99gOijPJc2qo5EgAWfycrMilTFIDAJ1PyePc2A5FNFuAI3xQlTA73fOXRFqbaLIATwLX/MicDZCkMUCUFBcA8aHBgLaYVAigLMcKp9kOKn45Vsbp1sRXC6gk+QCwJiE1iA/eIf0NQml+Y4taZkAbynPktQk1CEGPCSbPOhMyDzV+nk0CqUOludFmk2Iegn6UfUaNU5DAGNSGbm2ANoK/D6g2+3KhPuiWnFvJihIZ5UCImUEF2cJ8CDY1ahk03wc4KXPglEsfxDXOHNWtAuwDqo00IsOKXLd4NqnxilIR6Tk1kL+VlSA/wrTx4ZVT+1XOS5sRyPhESJry8HED8FDHJm0GQKAZ5VDa2xxqZEtkgDz6qS03dJz00Q6GEBU7MKdxiKYl05HAR91GMACEmpiUs0QDcNIIIaqzDRA4ykpKhdAFC8iMENlS7hagjkO8Non50KzTaLpYTwZSVwPQQZF9gLc6k5sUpjPechRxqEwrne0rQUIljENuVgMIUkjyQTZMTwZxDSzSaZSDK0AiZRQ6Y02Kw6t9nWmjobryoZHAlWopCoAncUAzbaQPx8p6MgC8cdqN9vpwB8MHHd3ykQ9lPiVkKwWgXV8AzIceh4WiNDXSjggwPvRcWjjNmo2erdH6wKSy82GhKGvJdKlZoGhgOyycRqSZtnbVMN2JH5E51KWFoolxuo6frwjkGOPeCujlwwC4GCNMOvdwKFlMl9ZOABWjEJnJSwVCxWjEhw6YhQyRcSTSMMlMTnQ7hn1AGleYq16DdVh5uSuih1NyrIiDLj0cq3EQAW/6JUe7dYiAm+OAGzDryBAmndMbDGEDprrMf3rgGCDbfqlL2w2ZMeod6LFCZozTaIiUtcbN9hpJqVQi1ZIB+HFDONSl5V7GruAA2GFLG9f+ozuNCVxINA7og80oJHjeL/0v05lkAYzTf6Yzm9N/pjM7TpixsaOX/H6uZjqTaNPXliIHjrIb9ZquMfB0jWNeejU2bkz6lueBqEM99ytKHjeYDdCobPQ70rwD7rOssicUiAXA1DhWO8kGgF1R4vJAAB9YpMM2AtgAlfY/SH818/5Mh14+LNP4wDtdOxMIPLsXLcY3yt5E7LMOvmEi422RBj3Zu5Gz8y6oHgvySn/+zLT8f/6M5d72SuaGWL0uZ48Cfsz+NuNpA+PtCMqNLw5C1dQspzO0cb95Xc4Cm+29k4/0qhVRvlztNZgbs5QN7qp3VqH5SSKnzCPajUAFq8838uDtj7E31uPD68vv5/PDw+Xh+Pp3+1KMry6vzPH9bw==);lineShape=1;fontSize=16;" vertex="1" parent="1">
          <mxGeometry x="205.7098755769748" y="181.86456970913753" width="35.845242776934356" height="78.89752114894156" as="geometry" />
        </mxCell>
        <mxCell id="2F841IOSb9LZKl2KnjlP-29" value="" style="shape=stencil(lVjZUhtBDPwav6rmPp4J+Q+qMMEVgikDOf4+vXHNYGm9TeXNLNM7I7W6pdldvHl9vHvZ74J7fTsdv+9/He7fHnfxyy6Ew/Pj/nR4w69dvN3Fm4fjaf/tdHx/vj///XK3rFx+/Tj+XN7w+4zr4uoCCu7P+UEq0tq/J1/P658OzxfrfZJWFCAHKX4bEPDvrADFS6gEUKXrI5UmPW4DYhavj1STlLANSEFi1IAiOW8DshffLaCRGJYQzQ5RPMlSdeN9M+gsiQHaeN/kIUnv24AWpOssIQ2ZpLVlCRoQvaREjxSDAgR+pOrFOQ1o4ggAOXFJH6lIYQCEqAGpSiBMgzjDA4jLhIcyczIBVUohACdBB928RALISKsBpFFd1wF5yGUC8IRoOkeJOoZWaPFlVKuzOyTCQ2qSdVob9iQ7LC6kFdeceEcACNHwUIZotwBNCwjlyKoVR8q6vAucitQSSq3rGEqiWUJajRmjujorjTBsawKcFCJRlIZfA9gOdTjpBARxxFtzH4K8CDpzq/SaONi9YwKCRI23BuqtABSj6UKLDzmpprynaLeCNka2lDdjukjV3goBZUYcJK+rdZEo48Fb4hYTYNXard3DZjzhAeUdmzWywAAQpOGh0qAhUZOlytN6FZA+cQ1dS0i0I9WKoO285Digj6zPHgdJsVrCgKWJ83mMXFs9zukY+ARXujVvvICsB0ldH8iNar8+NxSbIsiJtKuexvaTA2p6vdt+6Ct1GO+clWfkI2ivq7EBHBDx9GCbepkz5vUkNWvEywRIWPgwlAlokkiaQJvpbzAAOoJ620w6iGPDVbLi6diBzRk4sQFU3nKzdYwLLrfuAoZqbMF6LsTidJrAJRv4/Kr84JOf3JjK6rbRSfWtsrTcfwjTQappoIG+348R4WLKyKSVzCqY+kSPJwE7e/fJXJ8rdWJKiYRjDILajzC/spHE2dlzGV9J2/H2dojptZPzhDG+X9wx2HiBC4XO59IYWd9cXdwyvbgV6xRYn8j6KrXZ9Sze//1k8Pl6/Pj4PvFweHo6f964/L/9noFH528h8fYv);lineShape=1;fontSize=16;" vertex="1" parent="1">
          <mxGeometry x="238.7800848847928" y="214.18758581789984" width="37.58391076592966" height="23.325910189172873" as="geometry" />
        </mxCell>
      </root>
    </mxGraphModel>
  </diagram>
</mxfile>
